<svg width="304" height="97" viewBox="0 0 304 97" fill="none" xmlns="http://www.w3.org/2000/svg">
<g filter="url(#filter0_d)">
<path d="M6.875 39.2188C6.70833 39.8854 6.39583 40.3021 5.9375 40.4688C5.47917 40.6146 5.02083 40.5938 4.5625 40.4062C4.125 40.2188 3.75 39.8958 3.4375 39.4375C3.14583 38.9792 3.0625 38.4792 3.1875 37.9375C3.5 36.5208 3.94792 34.9583 4.53125 33.25C5.13542 31.5208 5.72917 29.8021 6.3125 28.0938C6 27.6146 5.75 27.1354 5.5625 26.6562C5.375 26.1562 5.28125 25.6354 5.28125 25.0938C5.28125 24.5521 5.47917 23.9896 5.875 23.4062C6.29167 22.8021 6.78125 22.25 7.34375 21.75C7.92708 21.25 8.52083 20.8438 9.125 20.5312C9.75 20.1979 10.2812 20.0312 10.7188 20.0312C11.4896 20.0312 12.0625 20.2917 12.4375 20.8125C12.8333 21.3333 13.0312 22.0312 13.0312 22.9062C13.0312 23.3854 12.9479 23.8646 12.7812 24.3438C12.6354 24.8021 12.4688 25.2396 12.2812 25.6562C12.0938 26.0521 11.9167 26.3958 11.75 26.6875C11.6042 26.9792 11.5208 27.1667 11.5 27.25C12.25 28.5833 13.0312 29.7604 13.8438 30.7812C14.6562 31.8021 15.3958 32.8125 16.0625 33.8125C16.75 34.8125 17.3125 35.875 17.75 37C18.1875 38.125 18.4062 39.4479 18.4062 40.9688C18.4062 41.3438 18.375 41.7292 18.3125 42.125C18.2708 42.5208 18.1979 42.8958 18.0938 43.25C18.8438 43.1042 19.5 42.875 20.0625 42.5625C20.6458 42.25 21.1458 41.8958 21.5625 41.5C22 41.0833 22.3542 40.6354 22.625 40.1562C22.9167 39.6771 23.1562 39.1771 23.3438 38.6562C23.5729 38.0521 23.8021 37.6146 24.0312 37.3438C24.2604 37.0729 24.5208 36.9375 24.8125 36.9375C25.0833 36.9375 25.3542 37.0312 25.625 37.2188C25.9167 37.3854 26.1667 37.6042 26.375 37.875C26.6042 38.1458 26.7812 38.4271 26.9062 38.7188C27.0521 39.0104 27.125 39.2708 27.125 39.5C27.125 39.8125 27.0417 40.1875 26.875 40.625C26.7083 41.0625 26.4792 41.5104 26.1875 41.9688C25.9167 42.4271 25.6042 42.875 25.25 43.3125C24.8958 43.7292 24.5312 44.0938 24.1562 44.4062C23.1562 45.2188 21.9792 45.9062 20.625 46.4688C19.2708 47.0104 17.5938 47.3542 15.5938 47.5C14.8229 48.1667 13.9062 48.7083 12.8438 49.125C11.8021 49.5625 10.625 49.7812 9.3125 49.7812C8.64583 49.7812 7.95833 49.6979 7.25 49.5312C6.5625 49.3646 5.89583 49.1458 5.25 48.875C4.625 48.625 4.05208 48.3438 3.53125 48.0312C3.01042 47.7188 2.59375 47.4062 2.28125 47.0938C1.48958 46.3438 0.979167 45.5938 0.75 44.8438C0.520833 44.0729 0.46875 43.3854 0.59375 42.7812C0.697917 42.1771 0.916667 41.6875 1.25 41.3125C1.58333 40.9167 1.92708 40.7188 2.28125 40.7188C2.48958 40.7188 2.8125 40.8125 3.25 41C3.70833 41.1667 4.22917 41.3958 4.8125 41.6875C5.39583 41.9583 6.03125 42.25 6.71875 42.5625C7.40625 42.875 8.09375 43.1771 8.78125 43.4688C9.46875 43.7396 10.1354 43.9688 10.7812 44.1562C11.4479 44.3229 12.0521 44.4062 12.5938 44.4062C12.9479 43.9896 13.2708 43.4375 13.5625 42.75C13.8542 42.0625 14 41.3125 14 40.5C14 39.5 13.8646 38.5729 13.5938 37.7188C13.3229 36.8646 12.9688 36.0729 12.5312 35.3438C12.0938 34.6146 11.5938 33.9375 11.0312 33.3125C10.4896 32.6667 9.9375 32.0625 9.375 31.5C8.875 32.7292 8.4375 33.9479 8.0625 35.1562C7.6875 36.3438 7.29167 37.6979 6.875 39.2188ZM17.9062 17.9062C18.3854 17.9479 18.9167 17.9792 19.5 18C20 18.0417 20.6042 18.0729 21.3125 18.0938C22.0208 18.0938 22.8125 18.1042 23.6875 18.125V7.28125C23.6875 6.82292 23.6458 6.45833 23.5625 6.1875C23.5 5.91667 23.4271 5.70833 23.3438 5.5625C23.2812 5.39583 23.2083 5.27083 23.125 5.1875C23.0625 5.08333 23.0312 4.97917 23.0312 4.875C23.0312 4.75 23.0938 4.64583 23.2188 4.5625C23.3438 4.47917 23.5104 4.40625 23.7188 4.34375C23.9271 4.28125 24.1458 4.23958 24.375 4.21875C24.625 4.17708 24.8646 4.15625 25.0938 4.15625C26.1562 4.15625 26.9896 4.4375 27.5938 5C28.2188 5.54167 28.5312 6.19792 28.5312 6.96875V18.1875C30.4896 18.1875 32.5521 18.1667 34.7188 18.125C36.9062 18.0833 39.0938 18.0104 41.2812 17.9062C41.5729 17.5938 41.8021 17.4792 41.9688 17.5625C42.1562 17.6458 42.2708 17.8438 42.3125 18.1562C42.375 18.4688 42.3854 18.8542 42.3438 19.3125C42.3021 19.7708 42.2188 20.2188 42.0938 20.6562C41.9688 21.0729 41.7917 21.4375 41.5625 21.75C41.3542 22.0625 41.1146 22.2188 40.8438 22.2188C38.2812 22.2812 36.0104 22.3229 34.0312 22.3438C32.0729 22.3438 30.2396 22.3438 28.5312 22.3438V42.625C28.5312 43.6667 28.7292 44.4167 29.125 44.875C29.5208 45.3333 30.0521 45.5625 30.7188 45.5625C31.3646 45.5625 31.9167 45.3333 32.375 44.875C32.8542 44.4167 33.2604 43.8438 33.5938 43.1562C33.9479 42.4688 34.2292 41.7292 34.4375 40.9375C34.6667 40.125 34.8542 39.3646 35 38.6562C35.125 37.9896 35.3333 37.5104 35.625 37.2188C35.9167 36.9062 36.2188 36.75 36.5312 36.75C36.7812 36.75 37.0417 36.8333 37.3125 37C37.5833 37.1458 37.8229 37.3438 38.0312 37.5938C38.2604 37.8438 38.4375 38.125 38.5625 38.4375C38.7083 38.75 38.7812 39.0625 38.7812 39.375C38.7812 39.4167 38.7812 39.4688 38.7812 39.5312C38.7812 39.5938 38.7604 39.6875 38.7188 39.8125C38.4479 40.875 38.0729 41.9896 37.5938 43.1562C37.1354 44.3229 36.5312 45.3958 35.7812 46.375C35.0521 47.3542 34.1771 48.1667 33.1562 48.8125C32.1354 49.4583 30.9375 49.7812 29.5625 49.7812C28.7083 49.7812 27.9167 49.6458 27.1875 49.375C26.4792 49.125 25.8646 48.7083 25.3438 48.125C24.8229 47.5625 24.4167 46.8333 24.125 45.9375C23.8333 45.0417 23.6875 43.9583 23.6875 42.6875V22.3438C22.9792 22.3438 22.3438 22.3438 21.7812 22.3438C21.2396 22.3229 20.7812 22.3021 20.4062 22.2812C19.9688 22.2604 19.5833 22.2396 19.25 22.2188C18.75 22.2188 18.3125 22 17.9375 21.5625C17.5417 21.1042 17.2708 20.6042 17.125 20.0625C16.9583 19.5208 16.9375 19.0312 17.0625 18.5938C17.1667 18.1354 17.4479 17.9062 17.9062 17.9062ZM50.0312 29.375C50.0312 30.5625 49.8229 31.7812 49.4062 33.0312C49.0104 34.2812 48.4062 35.4688 47.5938 36.5938C46.8021 37.6979 45.8125 38.6979 44.625 39.5938C43.4583 40.4688 42.1042 41.1354 40.5625 41.5938C40.7708 42.1354 41.0417 42.6562 41.375 43.1562C41.7292 43.6354 42.1458 44.0521 42.625 44.4062C43.1042 44.7604 43.6562 45.0417 44.2812 45.25C44.9271 45.4583 45.6667 45.5625 46.5 45.5625C47.75 45.5625 48.8229 45.3333 49.7188 44.875C50.6146 44.3958 51.3646 43.7708 51.9688 43C52.5938 42.2292 53.0938 41.3646 53.4688 40.4062C53.8438 39.4479 54.125 38.4792 54.3125 37.5C54.4583 36.7917 54.75 36.3229 55.1875 36.0938C55.6458 35.8438 56.1042 35.7812 56.5625 35.9062C57.0417 36.0312 57.4479 36.3021 57.7812 36.7188C58.1354 37.1146 58.2812 37.5938 58.2188 38.1562C58.1354 38.8021 57.9896 39.5417 57.7812 40.375C57.5938 41.2083 57.3021 42.0521 56.9062 42.9062C56.5104 43.7604 56 44.6042 55.375 45.4375C54.7708 46.25 54.0208 46.9792 53.125 47.625C52.2292 48.2708 51.1771 48.7917 49.9688 49.1875C48.7604 49.5833 47.375 49.7812 45.8125 49.7812C44.3542 49.7812 42.9375 49.4896 41.5625 48.9062C40.2083 48.3438 39 47.5312 37.9375 46.4688C36.8958 45.3854 36.0521 44.0625 35.4062 42.5C34.7812 40.9167 34.4688 39.125 34.4688 37.125C34.4688 35.1042 34.75 33.2292 35.3125 31.5C35.875 29.75 36.6146 28.2396 37.5312 26.9688C38.4479 25.6979 39.4896 24.7083 40.6562 24C41.8229 23.2708 43.0208 22.9062 44.25 22.9062C45.1458 22.9062 45.9479 23.0625 46.6562 23.375C47.3854 23.6875 48 24.1354 48.5 24.7188C49 25.2812 49.375 25.9583 49.625 26.75C49.8958 27.5417 50.0312 28.4167 50.0312 29.375ZM39.7188 36.9375C39.7188 37.125 39.7292 37.3125 39.75 37.5C39.7708 37.6875 39.7812 37.8854 39.7812 38.0938C40.5729 37.7188 41.2917 37.2396 41.9375 36.6562C42.5833 36.0729 43.1354 35.4062 43.5938 34.6562C44.0521 33.9062 44.4062 33.0938 44.6562 32.2188C44.9062 31.3229 45.0312 30.3958 45.0312 29.4375C45.0312 28.7292 44.9062 28.1771 44.6562 27.7812C44.4271 27.3854 44.1042 27.1875 43.6875 27.1875C43.1667 27.1875 42.6979 27.3646 42.2812 27.7188C41.8854 28.0729 41.5312 28.5417 41.2188 29.125C40.9271 29.6875 40.6771 30.3333 40.4688 31.0625C40.2812 31.7708 40.125 32.4896 40 33.2188C39.875 33.9479 39.7917 34.6458 39.75 35.3125C39.7083 35.9583 39.6979 36.5 39.7188 36.9375ZM62.25 50.4375C61.4583 50.4375 60.8125 50.3438 60.3125 50.1562C59.8125 49.9896 59.4271 49.7604 59.1562 49.4688V70.2812C59.1562 70.8646 59.0417 71.3333 58.8125 71.6875C58.5833 72.0625 58.2917 72.3542 57.9375 72.5625C57.6042 72.7708 57.2396 72.9062 56.8438 72.9688C56.4479 73.0521 56.0938 73.0938 55.7812 73.0938C55.1354 73.0938 54.7292 72.9271 54.5625 72.5938C54.3958 72.2604 54.3125 71.8542 54.3125 71.375V26.6875C54.3125 26.2292 54.2708 25.8646 54.1875 25.5938C54.125 25.3229 54.0521 25.1146 53.9688 24.9688C53.9062 24.8021 53.8333 24.6771 53.75 24.5938C53.6875 24.4896 53.6562 24.375 53.6562 24.25C53.6562 24.1458 53.7188 24.0521 53.8438 23.9688C53.9688 23.8854 54.1354 23.8125 54.3438 23.75C54.5521 23.6875 54.7708 23.6458 55 23.625C55.25 23.5833 55.4896 23.5625 55.7188 23.5625C56.7396 23.5625 57.5521 23.8438 58.1562 24.4062C58.7812 24.9479 59.1146 25.5833 59.1562 26.3125C59.8229 25.3333 60.625 24.5208 61.5625 23.875C62.5 23.2292 63.6458 22.9062 65 22.9062C66.25 22.9062 67.3333 23.1979 68.25 23.7812C69.1875 24.3646 69.9583 25.1667 70.5625 26.1875C71.1875 27.1875 71.6458 28.375 71.9375 29.75C72.25 31.125 72.4062 32.6042 72.4062 34.1875C72.4062 35.9792 72.25 37.6979 71.9375 39.3438C71.625 40.9688 71.2292 42.3646 70.75 43.5312C71.8125 43.4688 72.6875 43.3229 73.375 43.0938C74.0625 42.8646 74.6354 42.5521 75.0938 42.1562C75.5729 41.7396 75.9792 41.2396 76.3125 40.6562C76.6667 40.0729 77.0312 39.4062 77.4062 38.6562C77.6979 38.0521 77.9375 37.6146 78.125 37.3438C78.3333 37.0729 78.5833 36.9375 78.875 36.9375C79.1458 36.9375 79.4167 37.0208 79.6875 37.1875C79.9792 37.3542 80.2292 37.5625 80.4375 37.8125C80.6667 38.0625 80.8438 38.3333 80.9688 38.625C81.1146 38.8958 81.1875 39.1458 81.1875 39.375C81.1875 40.1042 80.9375 40.9375 80.4375 41.875C79.9375 42.8125 79.1667 43.6979 78.125 44.5312C77.1042 45.3646 75.8021 46.0729 74.2188 46.6562C72.6562 47.2188 70.8125 47.5 68.6875 47.5C67.8125 48.4375 66.8021 49.1562 65.6562 49.6562C64.5104 50.1771 63.375 50.4375 62.25 50.4375ZM63.375 27.1875C62.9167 27.1875 62.4688 27.3229 62.0312 27.5938C61.6146 27.8646 61.2188 28.2396 60.8438 28.7188C60.4688 29.1771 60.1354 29.7396 59.8438 30.4062C59.5729 31.0729 59.3438 31.7917 59.1562 32.5625V46.4062C59.6146 45.7396 60.3646 45.2292 61.4062 44.875C62.4479 44.5208 63.7083 44.2812 65.1875 44.1562C65.5625 43.5938 65.8854 42.9271 66.1562 42.1562C66.4479 41.3646 66.6875 40.5521 66.875 39.7188C67.0625 38.8854 67.1979 38.0729 67.2812 37.2812C67.3854 36.4896 67.4375 35.7917 67.4375 35.1875C67.4375 33.7292 67.3229 32.4896 67.0938 31.4688C66.8854 30.4479 66.5938 29.625 66.2188 29C65.8438 28.3542 65.4062 27.8958 64.9062 27.625C64.4271 27.3333 63.9167 27.1875 63.375 27.1875ZM77.4375 8.5625C77.4375 8.10417 77.3958 7.73958 77.3125 7.46875C77.25 7.19792 77.1771 6.98958 77.0938 6.84375C77.0312 6.67708 76.9583 6.55208 76.875 6.46875C76.8125 6.36458 76.7812 6.26042 76.7812 6.15625C76.7812 6.03125 76.8438 5.92708 76.9688 5.84375C77.0938 5.76042 77.2604 5.6875 77.4688 5.625C77.6771 5.5625 77.8958 5.52083 78.125 5.5C78.375 5.45833 78.6146 5.4375 78.8438 5.4375C79.9062 5.4375 80.7396 5.71875 81.3438 6.28125C81.9688 6.82292 82.2812 7.47917 82.2812 8.25V29.25C82.7188 28.3542 83.1875 27.5208 83.6875 26.75C84.2083 25.9792 84.7604 25.3125 85.3438 24.75C85.9479 24.1667 86.5833 23.7188 87.25 23.4062C87.9375 23.0729 88.6771 22.9062 89.4688 22.9062C90.5312 22.9062 91.4062 23.1042 92.0938 23.5C92.7812 23.8958 93.3229 24.4062 93.7188 25.0312C94.1146 25.6562 94.3854 26.3542 94.5312 27.125C94.6979 27.8958 94.7812 28.6458 94.7812 29.375V42.625C94.7812 42.7708 94.7917 43.0104 94.8125 43.3438C94.8333 43.6562 94.8958 43.9792 95 44.3125C95.1042 44.6458 95.2604 44.9375 95.4688 45.1875C95.6979 45.4375 96.0208 45.5625 96.4375 45.5625C97.0833 45.5625 97.6354 45.3333 98.0938 44.875C98.5729 44.4167 98.9792 43.8438 99.3125 43.1562C99.6667 42.4688 99.9479 41.7292 100.156 40.9375C100.385 40.125 100.573 39.3646 100.719 38.6562C100.844 38.0104 101.031 37.5417 101.281 37.25C101.552 36.9583 101.833 36.8021 102.125 36.7812C102.438 36.7396 102.75 36.8125 103.062 37C103.375 37.1875 103.646 37.4375 103.875 37.75C104.104 38.0417 104.271 38.375 104.375 38.75C104.5 39.125 104.521 39.4792 104.438 39.8125C104.146 40.875 103.76 41.9896 103.281 43.1562C102.823 44.3229 102.229 45.3958 101.5 46.375C100.771 47.3542 99.8958 48.1667 98.875 48.8125C97.8542 49.4583 96.6562 49.7812 95.2812 49.7812C94.4271 49.7812 93.6667 49.6146 93 49.2812C92.3542 48.9688 91.7917 48.5417 91.3125 48C90.8542 47.4583 90.5 46.8229 90.25 46.0938C90.0208 45.3646 89.9062 44.5938 89.9062 43.7812V30.7812C89.9062 30.2812 89.8958 29.8125 89.875 29.375C89.8542 28.9375 89.7917 28.5521 89.6875 28.2188C89.6042 27.8854 89.4688 27.625 89.2812 27.4375C89.1146 27.2292 88.875 27.125 88.5625 27.125C88.1042 27.125 87.5417 27.4375 86.875 28.0625C86.2083 28.6875 85.5521 29.5 84.9062 30.5C84.2604 31.5 83.6875 32.6354 83.1875 33.9062C82.7083 35.1562 82.4062 36.4167 82.2812 37.6875V47.0312C82.2812 47.3438 82.2708 47.6667 82.25 48C82.25 48.3125 82.1875 48.5938 82.0625 48.8438C81.9583 49.1146 81.7812 49.3333 81.5312 49.5C81.3021 49.6875 80.9583 49.7812 80.5 49.7812C80.1875 49.7812 79.8438 49.7396 79.4688 49.6562C79.1146 49.5938 78.7812 49.4583 78.4688 49.25C78.1771 49.0625 77.9271 48.7812 77.7188 48.4062C77.5312 48.0521 77.4375 47.5729 77.4375 46.9688V8.5625Z" fill="#C12929"/>
<path d="M135.998 7.68C134.462 7.68 132.798 7.53066 131.006 7.232C129.257 6.93333 127.422 6.57066 125.502 6.144V48H118.59V5.12C118.121 5.03466 117.673 4.992 117.246 4.992C116.862 4.992 116.457 4.992 116.03 4.992C112.446 4.992 109.694 5.65333 107.774 6.976C105.897 8.256 104.958 10.6027 104.958 14.016C104.958 16.576 105.235 18.5387 105.79 19.904C106.387 21.2267 106.985 22.2293 107.582 22.912C106.515 22.912 105.513 22.7627 104.574 22.464C103.678 22.1227 102.889 21.5893 102.206 20.864C101.523 20.1387 100.99 19.2 100.606 18.048C100.222 16.8533 100.03 15.3813 100.03 13.632C100.03 11.8827 100.371 10.1973 101.054 8.576C101.737 6.95466 102.825 5.52533 104.318 4.288C105.854 3.008 107.817 1.984 110.206 1.216C112.638 0.447999 115.603 0.0639992 119.102 0.0639992C120.809 0.0639992 122.345 0.149331 123.71 0.319996C125.118 0.447997 126.419 0.618664 127.614 0.831997C128.851 1.00266 130.067 1.17333 131.262 1.344C132.457 1.472 133.715 1.536 135.038 1.536C136.83 1.536 138.323 1.408 139.518 1.152C140.755 0.853331 141.779 0.533332 142.59 0.191998C142.718 0.959998 142.782 1.68533 142.782 2.368C142.782 5.90933 140.521 7.68 135.998 7.68ZM140.657 16V21.376C141.169 20.608 141.659 19.8827 142.129 19.2C142.641 18.5173 143.195 17.92 143.793 17.408C144.39 16.896 145.051 16.4907 145.777 16.192C146.502 15.8507 147.313 15.68 148.208 15.68C149.659 15.68 150.726 16.064 151.409 16.832C152.091 17.5573 152.433 18.4533 152.433 19.52C152.433 20.16 152.326 20.6933 152.113 21.12C151.899 21.5467 151.643 21.888 151.345 22.144C151.046 22.4 150.726 22.592 150.385 22.72C150.043 22.8053 149.745 22.848 149.489 22.848C149.105 22.848 148.785 22.7627 148.529 22.592C148.315 22.4213 148.081 22.2507 147.825 22.08C147.611 21.8667 147.355 21.6747 147.057 21.504C146.758 21.3333 146.374 21.248 145.905 21.248C144.923 21.248 143.985 21.5893 143.089 22.272C142.193 22.9547 141.382 23.68 140.657 24.448V48H134.257V16H140.657ZM179.373 16V37.76C179.373 38.1867 179.394 38.72 179.437 39.36C179.479 40 179.586 40.64 179.757 41.28C179.97 41.8773 180.269 42.4107 180.653 42.88C181.037 43.3067 181.57 43.52 182.253 43.52C184.343 43.52 185.879 41.1947 186.861 36.544H189.229C188.759 39.232 188.162 41.3653 187.437 42.944C186.711 44.48 185.943 45.6533 185.132 46.464C184.322 47.2747 183.49 47.7867 182.637 48C181.783 48.256 181.015 48.384 180.333 48.384C179.351 48.384 178.498 48.2133 177.773 47.872C177.09 47.5307 176.493 47.0827 175.981 46.528C175.511 45.9733 175.127 45.3333 174.829 44.608C174.53 43.8827 174.295 43.1147 174.125 42.304C173.485 43.968 172.439 45.3973 170.989 46.592C169.581 47.7867 167.853 48.384 165.805 48.384C164.525 48.384 163.223 48.128 161.901 47.616C160.621 47.104 159.447 46.272 158.381 45.12C157.357 43.9253 156.503 42.4107 155.821 40.576C155.181 38.6987 154.861 36.416 154.861 33.728C154.861 31.7653 155.074 29.7173 155.501 27.584C155.97 25.4507 156.695 23.5093 157.677 21.76C158.658 20.0107 159.917 18.56 161.453 17.408C162.989 16.256 164.845 15.68 167.021 15.68C167.533 15.68 168.066 15.744 168.621 15.872C169.218 15.9573 169.773 16.128 170.285 16.384C170.839 16.64 171.351 17.0027 171.821 17.472C172.29 17.8987 172.674 18.432 172.973 19.072V16H179.373ZM167.405 43.52C168.045 43.52 168.685 43.3493 169.325 43.008C170.007 42.624 170.605 42.1333 171.117 41.536C171.671 40.896 172.119 40.1493 172.461 39.296C172.802 38.4427 172.973 37.5253 172.973 36.544V21.952C172.674 21.2693 172.205 20.6507 171.565 20.096C170.967 19.4987 170.178 19.2 169.197 19.2C167.831 19.2 166.658 19.6693 165.677 20.608C164.695 21.504 163.906 22.656 163.309 24.064C162.711 25.4293 162.263 26.944 161.965 28.608C161.709 30.2293 161.581 31.7867 161.581 33.28C161.581 36.9493 162.071 39.5733 163.053 41.152C164.077 42.7307 165.527 43.52 167.405 43.52ZM210.435 3.2V37.76C210.435 38.1867 210.456 38.72 210.499 39.36C210.542 40 210.648 40.64 210.819 41.28C211.032 41.8773 211.331 42.4107 211.715 42.88C212.099 43.3067 212.632 43.52 213.315 43.52C215.406 43.52 216.942 41.1947 217.923 36.544H220.291C219.822 39.232 219.224 41.3653 218.499 42.944C217.774 44.48 217.006 45.6533 216.195 46.464C215.384 47.2747 214.552 47.7867 213.699 48C212.846 48.256 212.078 48.384 211.395 48.384C210.414 48.384 209.56 48.2133 208.835 47.872C208.152 47.5307 207.555 47.0827 207.043 46.528C206.574 45.9733 206.19 45.3333 205.891 44.608C205.592 43.8827 205.358 43.1147 205.187 42.304C204.547 43.968 203.502 45.3973 202.051 46.592C200.643 47.7867 198.915 48.384 196.867 48.384C195.587 48.384 194.286 48.128 192.963 47.616C191.683 47.104 190.51 46.272 189.443 45.12C188.419 43.9253 187.566 42.4107 186.883 40.576C186.243 38.6987 185.923 36.416 185.923 33.728C185.923 31.7653 186.136 29.7173 186.563 27.584C187.032 25.4507 187.758 23.5093 188.739 21.76C189.72 20.0107 190.979 18.56 192.515 17.408C194.051 16.256 195.907 15.68 198.083 15.68C198.595 15.68 199.128 15.744 199.683 15.872C200.28 15.9573 200.835 16.128 201.347 16.384C201.902 16.64 202.414 17.0027 202.883 17.472C203.352 17.8987 203.736 18.432 204.035 19.072V4.096L210.435 3.2ZM198.467 43.52C199.107 43.52 199.747 43.3493 200.387 43.008C201.07 42.624 201.667 42.1333 202.179 41.536C202.734 40.896 203.182 40.1493 203.523 39.296C203.864 38.4427 204.035 37.5253 204.035 36.544V21.952C203.736 21.2693 203.267 20.6507 202.627 20.096C202.03 19.4987 201.24 19.2 200.259 19.2C198.894 19.2 197.72 19.6693 196.739 20.608C195.758 21.504 194.968 22.656 194.371 24.064C193.774 25.4293 193.326 26.944 193.027 28.608C192.771 30.2293 192.643 31.7867 192.643 33.28C192.643 36.9493 193.134 39.5733 194.115 41.152C195.139 42.7307 196.59 43.52 198.467 43.52ZM224.345 16V37.76C224.345 38.1867 224.367 38.72 224.41 39.36C224.452 40 224.559 40.64 224.73 41.28C224.943 41.8773 225.242 42.4107 225.626 42.88C226.01 43.3067 226.543 43.52 227.226 43.52C229.316 43.52 230.852 41.1947 231.833 36.544H234.202C233.732 39.232 233.135 41.3653 232.41 42.944C231.684 44.48 230.916 45.6533 230.106 46.464C229.295 47.2747 228.463 47.7867 227.61 48C226.756 48.256 225.988 48.384 225.306 48.384C223.812 48.384 222.596 48.1067 221.658 47.552C220.719 46.9547 219.972 46.208 219.418 45.312C218.863 44.416 218.479 43.4133 218.266 42.304C218.052 41.1947 217.946 40.128 217.946 39.104V16H224.345ZM216.794 6.784C216.794 5.632 217.199 4.62933 218.01 3.776C218.82 2.92266 219.823 2.496 221.018 2.496C222.17 2.496 223.172 2.92266 224.026 3.776C224.879 4.62933 225.306 5.632 225.306 6.784C225.306 7.97866 224.879 8.98133 224.026 9.792C223.172 10.6027 222.17 11.008 221.018 11.008C219.823 11.008 218.82 10.6027 218.01 9.792C217.199 8.98133 216.794 7.97866 216.794 6.784ZM238.157 16V20.864C238.797 19.712 239.437 18.7947 240.077 18.112C240.759 17.3867 241.442 16.8533 242.125 16.512C242.807 16.1707 243.447 15.9573 244.045 15.872C244.685 15.744 245.282 15.68 245.837 15.68C247.757 15.68 249.293 16.0427 250.445 16.768C251.639 17.4933 252.535 18.432 253.133 19.584C253.73 20.6933 254.114 21.9307 254.285 23.296C254.498 24.6187 254.605 25.8987 254.605 27.136C254.605 27.904 254.583 28.7573 254.541 29.696C254.498 30.592 254.455 31.5307 254.413 32.512C254.37 33.4507 254.327 34.4107 254.285 35.392C254.242 36.3307 254.221 37.2053 254.221 38.016C254.221 38.3573 254.242 38.848 254.285 39.488C254.327 40.0853 254.434 40.6827 254.605 41.28C254.775 41.8773 255.053 42.4107 255.437 42.88C255.821 43.3067 256.375 43.52 257.101 43.52C258.082 43.52 258.957 42.9653 259.725 41.856C260.535 40.7467 261.197 38.976 261.708 36.544H264.076C263.607 39.232 263.01 41.3653 262.285 42.944C261.559 44.48 260.791 45.6533 259.981 46.464C259.17 47.2747 258.359 47.7867 257.549 48C256.738 48.256 255.991 48.384 255.309 48.384C253.943 48.384 252.791 48.128 251.853 47.616C250.914 47.0613 250.146 46.336 249.549 45.44C248.951 44.544 248.503 43.4987 248.205 42.304C247.949 41.1093 247.821 39.872 247.821 38.592C247.821 38.208 247.821 37.504 247.821 36.48C247.863 35.4133 247.885 34.2827 247.885 33.088C247.927 31.8933 247.949 30.7627 247.949 29.696C247.991 28.6293 248.013 27.8827 248.013 27.456C248.013 26.0907 247.906 24.96 247.693 24.064C247.479 23.168 247.181 22.464 246.797 21.952C246.413 21.44 245.965 21.0773 245.453 20.864C244.983 20.6507 244.471 20.544 243.917 20.544C242.594 20.544 241.442 21.0773 240.461 22.144C239.522 23.2107 238.754 25.0027 238.157 27.52V48H231.757V16H238.157ZM285.248 16V53.056C285.248 55.0613 285.034 56.7467 284.608 58.112C284.181 59.52 283.584 60.6507 282.816 61.504C282.09 62.4 281.237 63.04 280.256 63.424C279.317 63.808 278.314 64 277.248 64C275.114 64 273.45 63.3813 272.256 62.144C271.061 60.9493 270.464 59.4773 270.464 57.728C270.464 56.6187 270.698 55.616 271.168 54.72C271.68 53.824 272.32 52.992 273.088 52.224C273.898 51.4987 274.794 50.8373 275.776 50.24C276.8 49.6853 277.824 49.1947 278.848 48.768V43.264C278.037 44.3733 277.013 45.2907 275.776 46.016C274.581 46.7413 273.216 47.104 271.68 47.104C270.4 47.104 269.098 46.8693 267.776 46.4C266.496 45.888 265.322 45.0773 264.256 43.968C263.232 42.8587 262.378 41.408 261.696 39.616C261.056 37.824 260.736 35.648 260.736 33.088C260.736 31.168 260.949 29.184 261.376 27.136C261.845 25.088 262.57 23.232 263.552 21.568C264.533 19.8613 265.792 18.4533 267.328 17.344C268.864 16.2347 270.72 15.68 272.896 15.68C273.408 15.68 273.941 15.744 274.496 15.872C275.093 15.9573 275.648 16.128 276.16 16.384C276.714 16.64 277.226 17.0027 277.696 17.472C278.165 17.8987 278.549 18.432 278.848 19.072V16H285.248ZM273.28 42.24C273.92 42.24 274.56 42.0693 275.2 41.728C275.882 41.3867 276.48 40.9173 276.992 40.32C277.546 39.7227 277.994 39.0187 278.336 38.208C278.677 37.3973 278.848 36.5227 278.848 35.584V21.952C278.549 21.2693 278.08 20.6507 277.44 20.096C276.842 19.4987 276.053 19.2 275.072 19.2C273.706 19.2 272.533 19.648 271.552 20.544C270.57 21.3973 269.781 22.4853 269.184 23.808C268.586 25.1307 268.138 26.5813 267.84 28.16C267.584 29.7387 267.456 31.232 267.456 32.64C267.456 36.096 267.946 38.5707 268.928 40.064C269.952 41.5147 271.402 42.24 273.28 42.24ZM276.032 60.672C277.184 60.672 277.93 60.224 278.272 59.328C278.656 58.4747 278.848 57.3013 278.848 55.808V51.328C276.714 52.3093 275.2 53.2693 274.304 54.208C273.408 55.1893 272.96 56.2773 272.96 57.472C272.96 58.4533 273.216 59.2213 273.728 59.776C274.282 60.3733 275.05 60.672 276.032 60.672Z" fill="black"/>
</g>
<defs>
<filter id="filter0_d" x="0.527588" y="0.0639954" width="302.72" height="96.0298" filterUnits="userSpaceOnUse" color-interpolation-filters="sRGB">
<feFlood flood-opacity="0" result="BackgroundImageFix"/>
<feColorMatrix in="SourceAlpha" type="matrix" values="0 0 0 0 0 0 0 0 0 0 0 0 0 0 0 0 0 0 127 0"/>
<feOffset dx="10" dy="15"/>
<feGaussianBlur stdDeviation="4"/>
<feColorMatrix type="matrix" values="0 0 0 0 0 0 0 0 0 0 0 0 0 0 0 0 0 0 0.25 0"/>
<feBlend mode="normal" in2="BackgroundImageFix" result="effect1_dropShadow"/>
<feBlend mode="normal" in="SourceGraphic" in2="effect1_dropShadow" result="shape"/>
</filter>
</defs>
</svg>
