<svg width="231" height="71" viewBox="0 0 231 71" fill="none" xmlns="http://www.w3.org/2000/svg">
<g filter="url(#filter0_d)">
<path d="M5.40625 29.4141C5.28125 29.9141 5.04688 30.2266 4.70312 30.3516C4.35938 30.4609 4.01562 30.4453 3.67188 30.3047C3.34375 30.1641 3.0625 29.9219 2.82812 29.5781C2.60938 29.2344 2.54688 28.8594 2.64062 28.4531C2.875 27.3906 3.21094 26.2188 3.64844 24.9375C4.10156 23.6406 4.54688 22.3516 4.98438 21.0703C4.75 20.7109 4.5625 20.3516 4.42188 19.9922C4.28125 19.6172 4.21094 19.2266 4.21094 18.8203C4.21094 18.4141 4.35938 17.9922 4.65625 17.5547C4.96875 17.1016 5.33594 16.6875 5.75781 16.3125C6.19531 15.9375 6.64062 15.6328 7.09375 15.3984C7.5625 15.1484 7.96094 15.0234 8.28906 15.0234C8.86719 15.0234 9.29688 15.2188 9.57812 15.6094C9.875 16 10.0234 16.5234 10.0234 17.1797C10.0234 17.5391 9.96094 17.8984 9.83594 18.2578C9.72656 18.6016 9.60156 18.9297 9.46094 19.2422C9.32031 19.5391 9.1875 19.7969 9.0625 20.0156C8.95312 20.2344 8.89062 20.375 8.875 20.4375C9.4375 21.4375 10.0234 22.3203 10.6328 23.0859C11.2422 23.8516 11.7969 24.6094 12.2969 25.3594C12.8125 26.1094 13.2344 26.9062 13.5625 27.75C13.8906 28.5938 14.0547 29.5859 14.0547 30.7266C14.0547 31.0078 14.0312 31.2969 13.9844 31.5938C13.9531 31.8906 13.8984 32.1719 13.8203 32.4375C14.3828 32.3281 14.875 32.1562 15.2969 31.9219C15.7344 31.6875 16.1094 31.4219 16.4219 31.125C16.75 30.8125 17.0156 30.4766 17.2188 30.1172C17.4375 29.7578 17.6172 29.3828 17.7578 28.9922C17.9297 28.5391 18.1016 28.2109 18.2734 28.0078C18.4453 27.8047 18.6406 27.7031 18.8594 27.7031C19.0625 27.7031 19.2656 27.7734 19.4688 27.9141C19.6875 28.0391 19.875 28.2031 20.0312 28.4062C20.2031 28.6094 20.3359 28.8203 20.4297 29.0391C20.5391 29.2578 20.5938 29.4531 20.5938 29.625C20.5938 29.8594 20.5312 30.1406 20.4062 30.4688C20.2812 30.7969 20.1094 31.1328 19.8906 31.4766C19.6875 31.8203 19.4531 32.1562 19.1875 32.4844C18.9219 32.7969 18.6484 33.0703 18.3672 33.3047C17.6172 33.9141 16.7344 34.4297 15.7188 34.8516C14.7031 35.2578 13.4453 35.5156 11.9453 35.625C11.3672 36.125 10.6797 36.5312 9.88281 36.8438C9.10156 37.1719 8.21875 37.3359 7.23438 37.3359C6.73438 37.3359 6.21875 37.2734 5.6875 37.1484C5.17188 37.0234 4.67188 36.8594 4.1875 36.6562C3.71875 36.4688 3.28906 36.2578 2.89844 36.0234C2.50781 35.7891 2.19531 35.5547 1.96094 35.3203C1.36719 34.7578 0.984375 34.1953 0.8125 33.6328C0.640625 33.0547 0.601562 32.5391 0.695312 32.0859C0.773438 31.6328 0.9375 31.2656 1.1875 30.9844C1.4375 30.6875 1.69531 30.5391 1.96094 30.5391C2.11719 30.5391 2.35938 30.6094 2.6875 30.75C3.03125 30.875 3.42188 31.0469 3.85938 31.2656C4.29688 31.4688 4.77344 31.6875 5.28906 31.9219C5.80469 32.1562 6.32031 32.3828 6.83594 32.6016C7.35156 32.8047 7.85156 32.9766 8.33594 33.1172C8.83594 33.2422 9.28906 33.3047 9.69531 33.3047C9.96094 32.9922 10.2031 32.5781 10.4219 32.0625C10.6406 31.5469 10.75 30.9844 10.75 30.375C10.75 29.625 10.6484 28.9297 10.4453 28.2891C10.2422 27.6484 9.97656 27.0547 9.64844 26.5078C9.32031 25.9609 8.94531 25.4531 8.52344 24.9844C8.11719 24.5 7.70312 24.0469 7.28125 23.625C6.90625 24.5469 6.57812 25.4609 6.29688 26.3672C6.01562 27.2578 5.71875 28.2734 5.40625 29.4141ZM13.6797 13.4297C14.0391 13.4609 14.4375 13.4844 14.875 13.5C15.25 13.5312 15.7031 13.5547 16.2344 13.5703C16.7656 13.5703 17.3594 13.5781 18.0156 13.5938V5.46094C18.0156 5.11719 17.9844 4.84375 17.9219 4.64062C17.875 4.4375 17.8203 4.28125 17.7578 4.17188C17.7109 4.04688 17.6562 3.95313 17.5938 3.89062C17.5469 3.8125 17.5234 3.73437 17.5234 3.65625C17.5234 3.5625 17.5703 3.48438 17.6641 3.42188C17.7578 3.35937 17.8828 3.30469 18.0391 3.25781C18.1953 3.21094 18.3594 3.17969 18.5312 3.16406C18.7188 3.13281 18.8984 3.11719 19.0703 3.11719C19.8672 3.11719 20.4922 3.32812 20.9453 3.75C21.4141 4.15625 21.6484 4.64844 21.6484 5.22656V13.6406C23.1172 13.6406 24.6641 13.625 26.2891 13.5938C27.9297 13.5625 29.5703 13.5078 31.2109 13.4297C31.4297 13.1953 31.6016 13.1094 31.7266 13.1719C31.8672 13.2344 31.9531 13.3828 31.9844 13.6172C32.0312 13.8516 32.0391 14.1406 32.0078 14.4844C31.9766 14.8281 31.9141 15.1641 31.8203 15.4922C31.7266 15.8047 31.5938 16.0781 31.4219 16.3125C31.2656 16.5469 31.0859 16.6641 30.8828 16.6641C28.9609 16.7109 27.2578 16.7422 25.7734 16.7578C24.3047 16.7578 22.9297 16.7578 21.6484 16.7578V31.9688C21.6484 32.75 21.7969 33.3125 22.0938 33.6562C22.3906 34 22.7891 34.1719 23.2891 34.1719C23.7734 34.1719 24.1875 34 24.5312 33.6562C24.8906 33.3125 25.1953 32.8828 25.4453 32.3672C25.7109 31.8516 25.9219 31.2969 26.0781 30.7031C26.25 30.0938 26.3906 29.5234 26.5 28.9922C26.5938 28.4922 26.75 28.1328 26.9688 27.9141C27.1875 27.6797 27.4141 27.5625 27.6484 27.5625C27.8359 27.5625 28.0312 27.625 28.2344 27.75C28.4375 27.8594 28.6172 28.0078 28.7734 28.1953C28.9453 28.3828 29.0781 28.5938 29.1719 28.8281C29.2812 29.0625 29.3359 29.2969 29.3359 29.5312C29.3359 29.5625 29.3359 29.6016 29.3359 29.6484C29.3359 29.6953 29.3203 29.7656 29.2891 29.8594C29.0859 30.6562 28.8047 31.4922 28.4453 32.3672C28.1016 33.2422 27.6484 34.0469 27.0859 34.7812C26.5391 35.5156 25.8828 36.125 25.1172 36.6094C24.3516 37.0938 23.4531 37.3359 22.4219 37.3359C21.7812 37.3359 21.1875 37.2344 20.6406 37.0312C20.1094 36.8438 19.6484 36.5312 19.2578 36.0938C18.8672 35.6719 18.5625 35.125 18.3438 34.4531C18.125 33.7812 18.0156 32.9688 18.0156 32.0156V16.7578C17.4844 16.7578 17.0078 16.7578 16.5859 16.7578C16.1797 16.7422 15.8359 16.7266 15.5547 16.7109C15.2266 16.6953 14.9375 16.6797 14.6875 16.6641C14.3125 16.6641 13.9844 16.5 13.7031 16.1719C13.4062 15.8281 13.2031 15.4531 13.0938 15.0469C12.9688 14.6406 12.9531 14.2734 13.0469 13.9453C13.125 13.6016 13.3359 13.4297 13.6797 13.4297ZM37.7734 22.0312C37.7734 22.9219 37.6172 23.8359 37.3047 24.7734C37.0078 25.7109 36.5547 26.6016 35.9453 27.4453C35.3516 28.2734 34.6094 29.0234 33.7188 29.6953C32.8438 30.3516 31.8281 30.8516 30.6719 31.1953C30.8281 31.6016 31.0312 31.9922 31.2812 32.3672C31.5469 32.7266 31.8594 33.0391 32.2188 33.3047C32.5781 33.5703 32.9922 33.7812 33.4609 33.9375C33.9453 34.0938 34.5 34.1719 35.125 34.1719C36.0625 34.1719 36.8672 34 37.5391 33.6562C38.2109 33.2969 38.7734 32.8281 39.2266 32.25C39.6953 31.6719 40.0703 31.0234 40.3516 30.3047C40.6328 29.5859 40.8438 28.8594 40.9844 28.125C41.0938 27.5938 41.3125 27.2422 41.6406 27.0703C41.9844 26.8828 42.3281 26.8359 42.6719 26.9297C43.0312 27.0234 43.3359 27.2266 43.5859 27.5391C43.8516 27.8359 43.9609 28.1953 43.9141 28.6172C43.8516 29.1016 43.7422 29.6562 43.5859 30.2812C43.4453 30.9062 43.2266 31.5391 42.9297 32.1797C42.6328 32.8203 42.25 33.4531 41.7812 34.0781C41.3281 34.6875 40.7656 35.2344 40.0938 35.7188C39.4219 36.2031 38.6328 36.5938 37.7266 36.8906C36.8203 37.1875 35.7812 37.3359 34.6094 37.3359C33.5156 37.3359 32.4531 37.1172 31.4219 36.6797C30.4062 36.2578 29.5 35.6484 28.7031 34.8516C27.9219 34.0391 27.2891 33.0469 26.8047 31.875C26.3359 30.6875 26.1016 29.3438 26.1016 27.8438C26.1016 26.3281 26.3125 24.9219 26.7344 23.625C27.1562 22.3125 27.7109 21.1797 28.3984 20.2266C29.0859 19.2734 29.8672 18.5312 30.7422 18C31.6172 17.4531 32.5156 17.1797 33.4375 17.1797C34.1094 17.1797 34.7109 17.2969 35.2422 17.5312C35.7891 17.7656 36.25 18.1016 36.625 18.5391C37 18.9609 37.2812 19.4688 37.4688 20.0625C37.6719 20.6562 37.7734 21.3125 37.7734 22.0312ZM30.0391 27.7031C30.0391 27.8438 30.0469 27.9844 30.0625 28.125C30.0781 28.2656 30.0859 28.4141 30.0859 28.5703C30.6797 28.2891 31.2188 27.9297 31.7031 27.4922C32.1875 27.0547 32.6016 26.5547 32.9453 25.9922C33.2891 25.4297 33.5547 24.8203 33.7422 24.1641C33.9297 23.4922 34.0234 22.7969 34.0234 22.0781C34.0234 21.5469 33.9297 21.1328 33.7422 20.8359C33.5703 20.5391 33.3281 20.3906 33.0156 20.3906C32.625 20.3906 32.2734 20.5234 31.9609 20.7891C31.6641 21.0547 31.3984 21.4062 31.1641 21.8438C30.9453 22.2656 30.7578 22.75 30.6016 23.2969C30.4609 23.8281 30.3438 24.3672 30.25 24.9141C30.1562 25.4609 30.0938 25.9844 30.0625 26.4844C30.0312 26.9688 30.0234 27.375 30.0391 27.7031ZM46.9375 37.8281C46.3438 37.8281 45.8594 37.7578 45.4844 37.6172C45.1094 37.4922 44.8203 37.3203 44.6172 37.1016V52.7109C44.6172 53.1484 44.5312 53.5 44.3594 53.7656C44.1875 54.0469 43.9688 54.2656 43.7031 54.4219C43.4531 54.5781 43.1797 54.6797 42.8828 54.7266C42.5859 54.7891 42.3203 54.8203 42.0859 54.8203C41.6016 54.8203 41.2969 54.6953 41.1719 54.4453C41.0469 54.1953 40.9844 53.8906 40.9844 53.5312V20.0156C40.9844 19.6719 40.9531 19.3984 40.8906 19.1953C40.8438 18.9922 40.7891 18.8359 40.7266 18.7266C40.6797 18.6016 40.625 18.5078 40.5625 18.4453C40.5156 18.3672 40.4922 18.2812 40.4922 18.1875C40.4922 18.1094 40.5391 18.0391 40.6328 17.9766C40.7266 17.9141 40.8516 17.8594 41.0078 17.8125C41.1641 17.7656 41.3281 17.7344 41.5 17.7188C41.6875 17.6875 41.8672 17.6719 42.0391 17.6719C42.8047 17.6719 43.4141 17.8828 43.8672 18.3047C44.3359 18.7109 44.5859 19.1875 44.6172 19.7344C45.1172 19 45.7188 18.3906 46.4219 17.9062C47.125 17.4219 47.9844 17.1797 49 17.1797C49.9375 17.1797 50.75 17.3984 51.4375 17.8359C52.1406 18.2734 52.7188 18.875 53.1719 19.6406C53.6406 20.3906 53.9844 21.2812 54.2031 22.3125C54.4375 23.3438 54.5547 24.4531 54.5547 25.6406C54.5547 26.9844 54.4375 28.2734 54.2031 29.5078C53.9688 30.7266 53.6719 31.7734 53.3125 32.6484C54.1094 32.6016 54.7656 32.4922 55.2812 32.3203C55.7969 32.1484 56.2266 31.9141 56.5703 31.6172C56.9297 31.3047 57.2344 30.9297 57.4844 30.4922C57.75 30.0547 58.0234 29.5547 58.3047 28.9922C58.5234 28.5391 58.7031 28.2109 58.8438 28.0078C59 27.8047 59.1875 27.7031 59.4062 27.7031C59.6094 27.7031 59.8125 27.7656 60.0156 27.8906C60.2344 28.0156 60.4219 28.1719 60.5781 28.3594C60.75 28.5469 60.8828 28.75 60.9766 28.9688C61.0859 29.1719 61.1406 29.3594 61.1406 29.5312C61.1406 30.0781 60.9531 30.7031 60.5781 31.4062C60.2031 32.1094 59.625 32.7734 58.8438 33.3984C58.0781 34.0234 57.1016 34.5547 55.9141 34.9922C54.7422 35.4141 53.3594 35.625 51.7656 35.625C51.1094 36.3281 50.3516 36.8672 49.4922 37.2422C48.6328 37.6328 47.7812 37.8281 46.9375 37.8281ZM47.7812 20.3906C47.4375 20.3906 47.1016 20.4922 46.7734 20.6953C46.4609 20.8984 46.1641 21.1797 45.8828 21.5391C45.6016 21.8828 45.3516 22.3047 45.1328 22.8047C44.9297 23.3047 44.7578 23.8438 44.6172 24.4219V34.8047C44.9609 34.3047 45.5234 33.9219 46.3047 33.6562C47.0859 33.3906 48.0312 33.2109 49.1406 33.1172C49.4219 32.6953 49.6641 32.1953 49.8672 31.6172C50.0859 31.0234 50.2656 30.4141 50.4062 29.7891C50.5469 29.1641 50.6484 28.5547 50.7109 27.9609C50.7891 27.3672 50.8281 26.8438 50.8281 26.3906C50.8281 25.2969 50.7422 24.3672 50.5703 23.6016C50.4141 22.8359 50.1953 22.2188 49.9141 21.75C49.6328 21.2656 49.3047 20.9219 48.9297 20.7188C48.5703 20.5 48.1875 20.3906 47.7812 20.3906ZM58.3281 6.42188C58.3281 6.07812 58.2969 5.80469 58.2344 5.60156C58.1875 5.39844 58.1328 5.24219 58.0703 5.13281C58.0234 5.00781 57.9688 4.91406 57.9062 4.85156C57.8594 4.77344 57.8359 4.69531 57.8359 4.61719C57.8359 4.52344 57.8828 4.44531 57.9766 4.38281C58.0703 4.32031 58.1953 4.26562 58.3516 4.21875C58.5078 4.17188 58.6719 4.14063 58.8438 4.125C59.0312 4.09375 59.2109 4.07812 59.3828 4.07812C60.1797 4.07812 60.8047 4.28906 61.2578 4.71094C61.7266 5.11719 61.9609 5.60938 61.9609 6.1875V21.9375C62.2891 21.2656 62.6406 20.6406 63.0156 20.0625C63.4062 19.4844 63.8203 18.9844 64.2578 18.5625C64.7109 18.125 65.1875 17.7891 65.6875 17.5547C66.2031 17.3047 66.7578 17.1797 67.3516 17.1797C68.1484 17.1797 68.8047 17.3281 69.3203 17.625C69.8359 17.9219 70.2422 18.3047 70.5391 18.7734C70.8359 19.2422 71.0391 19.7656 71.1484 20.3438C71.2734 20.9219 71.3359 21.4844 71.3359 22.0312V31.9688C71.3359 32.0781 71.3438 32.2578 71.3594 32.5078C71.375 32.7422 71.4219 32.9844 71.5 33.2344C71.5781 33.4844 71.6953 33.7031 71.8516 33.8906C72.0234 34.0781 72.2656 34.1719 72.5781 34.1719C73.0625 34.1719 73.4766 34 73.8203 33.6562C74.1797 33.3125 74.4844 32.8828 74.7344 32.3672C75 31.8516 75.2109 31.2969 75.3672 30.7031C75.5391 30.0938 75.6797 29.5234 75.7891 28.9922C75.8828 28.5078 76.0234 28.1562 76.2109 27.9375C76.4141 27.7188 76.625 27.6016 76.8438 27.5859C77.0781 27.5547 77.3125 27.6094 77.5469 27.75C77.7812 27.8906 77.9844 28.0781 78.1562 28.3125C78.3281 28.5312 78.4531 28.7812 78.5312 29.0625C78.625 29.3438 78.6406 29.6094 78.5781 29.8594C78.3594 30.6562 78.0703 31.4922 77.7109 32.3672C77.3672 33.2422 76.9219 34.0469 76.375 34.7812C75.8281 35.5156 75.1719 36.125 74.4062 36.6094C73.6406 37.0938 72.7422 37.3359 71.7109 37.3359C71.0703 37.3359 70.5 37.2109 70 36.9609C69.5156 36.7266 69.0938 36.4062 68.7344 36C68.3906 35.5938 68.125 35.1172 67.9375 34.5703C67.7656 34.0234 67.6797 33.4453 67.6797 32.8359V23.0859C67.6797 22.7109 67.6719 22.3594 67.6562 22.0312C67.6406 21.7031 67.5938 21.4141 67.5156 21.1641C67.4531 20.9141 67.3516 20.7188 67.2109 20.5781C67.0859 20.4219 66.9062 20.3438 66.6719 20.3438C66.3281 20.3438 65.9062 20.5781 65.4062 21.0469C64.9062 21.5156 64.4141 22.125 63.9297 22.875C63.4453 23.625 63.0156 24.4766 62.6406 25.4297C62.2812 26.3672 62.0547 27.3125 61.9609 28.2656V35.2734C61.9609 35.5078 61.9531 35.75 61.9375 36C61.9375 36.2344 61.8906 36.4453 61.7969 36.6328C61.7188 36.8359 61.5859 37 61.3984 37.125C61.2266 37.2656 60.9688 37.3359 60.625 37.3359C60.3906 37.3359 60.1328 37.3047 59.8516 37.2422C59.5859 37.1953 59.3359 37.0938 59.1016 36.9375C58.8828 36.7969 58.6953 36.5859 58.5391 36.3047C58.3984 36.0391 58.3281 35.6797 58.3281 35.2266V6.42188Z" fill="#C12929"/>
<path d="M102.249 5.76C101.097 5.76 99.8485 5.648 98.5045 5.424C97.1925 5.2 95.8165 4.928 94.3765 4.608V36H89.1925V3.84C88.8405 3.776 88.5045 3.744 88.1845 3.744C87.8965 3.744 87.5925 3.744 87.2725 3.744C84.5845 3.744 82.5205 4.24 81.0805 5.232C79.6725 6.192 78.9685 7.952 78.9685 10.512C78.9685 12.432 79.1765 13.904 79.5925 14.928C80.0405 15.92 80.4885 16.672 80.9365 17.184C80.1365 17.184 79.3845 17.072 78.6805 16.848C78.0085 16.592 77.4165 16.192 76.9045 15.648C76.3925 15.104 75.9925 14.4 75.7045 13.536C75.4165 12.64 75.2725 11.536 75.2725 10.224C75.2725 8.912 75.5285 7.648 76.0405 6.432C76.5525 5.216 77.3685 4.144 78.4885 3.216C79.6405 2.256 81.1125 1.488 82.9045 0.912C84.7285 0.335999 86.9525 0.0479994 89.5765 0.0479994C90.8565 0.0479994 92.0085 0.111999 93.0325 0.239997C94.0885 0.335998 95.0645 0.463998 95.9605 0.623998C96.8885 0.751998 97.8005 0.879998 98.6965 1.008C99.5925 1.104 100.537 1.152 101.529 1.152C102.873 1.152 103.993 1.056 104.889 0.863997C105.817 0.639998 106.585 0.399999 107.193 0.143998C107.289 0.719998 107.337 1.264 107.337 1.776C107.337 4.432 105.641 5.76 102.249 5.76ZM105.742 12V16.032C106.126 15.456 106.494 14.912 106.846 14.4C107.23 13.888 107.646 13.44 108.094 13.056C108.542 12.672 109.038 12.368 109.582 12.144C110.126 11.888 110.734 11.76 111.406 11.76C112.494 11.76 113.294 12.048 113.806 12.624C114.318 13.168 114.574 13.84 114.574 14.64C114.574 15.12 114.494 15.52 114.334 15.84C114.174 16.16 113.982 16.416 113.758 16.608C113.534 16.8 113.294 16.944 113.038 17.04C112.782 17.104 112.558 17.136 112.366 17.136C112.078 17.136 111.838 17.072 111.646 16.944C111.486 16.816 111.31 16.688 111.118 16.56C110.958 16.4 110.766 16.256 110.542 16.128C110.318 16 110.03 15.936 109.678 15.936C108.942 15.936 108.238 16.192 107.566 16.704C106.894 17.216 106.286 17.76 105.742 18.336V36H100.942V12H105.742ZM134.779 12V28.32C134.779 28.64 134.795 29.04 134.827 29.52C134.859 30 134.939 30.48 135.067 30.96C135.227 31.408 135.451 31.808 135.739 32.16C136.027 32.48 136.427 32.64 136.939 32.64C138.507 32.64 139.659 30.896 140.395 27.408H142.171C141.819 29.424 141.371 31.024 140.827 32.208C140.283 33.36 139.707 34.24 139.099 34.848C138.491 35.456 137.867 35.84 137.227 36C136.587 36.192 136.011 36.288 135.499 36.288C134.763 36.288 134.123 36.16 133.579 35.904C133.067 35.648 132.619 35.312 132.235 34.896C131.883 34.48 131.595 34 131.371 33.456C131.147 32.912 130.971 32.336 130.843 31.728C130.363 32.976 129.579 34.048 128.491 34.944C127.435 35.84 126.139 36.288 124.603 36.288C123.643 36.288 122.667 36.096 121.675 35.712C120.715 35.328 119.835 34.704 119.035 33.84C118.267 32.944 117.627 31.808 117.115 30.432C116.635 29.024 116.395 27.312 116.395 25.296C116.395 23.824 116.555 22.288 116.875 20.688C117.227 19.088 117.771 17.632 118.507 16.32C119.243 15.008 120.187 13.92 121.339 13.056C122.491 12.192 123.883 11.76 125.515 11.76C125.899 11.76 126.299 11.808 126.715 11.904C127.163 11.968 127.579 12.096 127.963 12.288C128.379 12.48 128.763 12.752 129.115 13.104C129.467 13.424 129.755 13.824 129.979 14.304V12H134.779ZM125.803 32.64C126.283 32.64 126.763 32.512 127.243 32.256C127.755 31.968 128.203 31.6 128.587 31.152C129.003 30.672 129.339 30.112 129.595 29.472C129.851 28.832 129.979 28.144 129.979 27.408V16.464C129.755 15.952 129.403 15.488 128.923 15.072C128.475 14.624 127.883 14.4 127.147 14.4C126.123 14.4 125.243 14.752 124.507 15.456C123.771 16.128 123.179 16.992 122.731 18.048C122.283 19.072 121.947 20.208 121.723 21.456C121.531 22.672 121.435 23.84 121.435 24.96C121.435 27.712 121.803 29.68 122.539 30.864C123.307 32.048 124.395 32.64 125.803 32.64ZM158.076 2.4V28.32C158.076 28.64 158.092 29.04 158.124 29.52C158.156 30 158.236 30.48 158.364 30.96C158.524 31.408 158.748 31.808 159.036 32.16C159.324 32.48 159.724 32.64 160.236 32.64C161.804 32.64 162.956 30.896 163.692 27.408H165.468C165.116 29.424 164.668 31.024 164.124 32.208C163.58 33.36 163.004 34.24 162.396 34.848C161.788 35.456 161.164 35.84 160.524 36C159.884 36.192 159.308 36.288 158.796 36.288C158.06 36.288 157.42 36.16 156.876 35.904C156.364 35.648 155.916 35.312 155.532 34.896C155.18 34.48 154.892 34 154.668 33.456C154.444 32.912 154.268 32.336 154.14 31.728C153.66 32.976 152.876 34.048 151.788 34.944C150.732 35.84 149.436 36.288 147.9 36.288C146.94 36.288 145.964 36.096 144.972 35.712C144.012 35.328 143.132 34.704 142.332 33.84C141.564 32.944 140.924 31.808 140.412 30.432C139.932 29.024 139.692 27.312 139.692 25.296C139.692 23.824 139.852 22.288 140.172 20.688C140.524 19.088 141.068 17.632 141.804 16.32C142.54 15.008 143.484 13.92 144.636 13.056C145.788 12.192 147.18 11.76 148.812 11.76C149.196 11.76 149.596 11.808 150.012 11.904C150.46 11.968 150.876 12.096 151.26 12.288C151.676 12.48 152.06 12.752 152.412 13.104C152.764 13.424 153.052 13.824 153.276 14.304V3.072L158.076 2.4ZM149.1 32.64C149.58 32.64 150.06 32.512 150.54 32.256C151.052 31.968 151.5 31.6 151.884 31.152C152.3 30.672 152.636 30.112 152.892 29.472C153.148 28.832 153.276 28.144 153.276 27.408V16.464C153.052 15.952 152.7 15.488 152.22 15.072C151.772 14.624 151.18 14.4 150.444 14.4C149.42 14.4 148.54 14.752 147.804 15.456C147.068 16.128 146.476 16.992 146.028 18.048C145.58 19.072 145.244 20.208 145.02 21.456C144.828 22.672 144.732 23.84 144.732 24.96C144.732 27.712 145.1 29.68 145.836 30.864C146.604 32.048 147.692 32.64 149.1 32.64ZM168.509 12V28.32C168.509 28.64 168.525 29.04 168.557 29.52C168.589 30 168.669 30.48 168.797 30.96C168.957 31.408 169.181 31.808 169.469 32.16C169.757 32.48 170.157 32.64 170.669 32.64C172.237 32.64 173.389 30.896 174.125 27.408H175.901C175.549 29.424 175.101 31.024 174.557 32.208C174.013 33.36 173.437 34.24 172.829 34.848C172.221 35.456 171.597 35.84 170.957 36C170.317 36.192 169.741 36.288 169.229 36.288C168.109 36.288 167.197 36.08 166.493 35.664C165.789 35.216 165.229 34.656 164.813 33.984C164.397 33.312 164.109 32.56 163.949 31.728C163.789 30.896 163.709 30.096 163.709 29.328V12H168.509ZM162.845 5.088C162.845 4.224 163.149 3.472 163.757 2.832C164.365 2.192 165.117 1.872 166.013 1.872C166.877 1.872 167.629 2.192 168.269 2.832C168.909 3.472 169.229 4.224 169.229 5.088C169.229 5.984 168.909 6.736 168.269 7.344C167.629 7.952 166.877 8.256 166.013 8.256C165.117 8.256 164.365 7.952 163.757 7.344C163.149 6.736 162.845 5.984 162.845 5.088ZM178.867 12V15.648C179.347 14.784 179.827 14.096 180.307 13.584C180.819 13.04 181.331 12.64 181.843 12.384C182.355 12.128 182.835 11.968 183.283 11.904C183.763 11.808 184.211 11.76 184.627 11.76C186.067 11.76 187.219 12.032 188.083 12.576C188.979 13.12 189.651 13.824 190.099 14.688C190.547 15.52 190.835 16.448 190.963 17.472C191.123 18.464 191.203 19.424 191.203 20.352C191.203 20.928 191.187 21.568 191.155 22.272C191.123 22.944 191.091 23.648 191.059 24.384C191.027 25.088 190.995 25.808 190.963 26.544C190.931 27.248 190.915 27.904 190.915 28.512C190.915 28.768 190.931 29.136 190.963 29.616C190.995 30.064 191.075 30.512 191.203 30.96C191.331 31.408 191.539 31.808 191.827 32.16C192.115 32.48 192.531 32.64 193.075 32.64C193.811 32.64 194.467 32.224 195.043 31.392C195.651 30.56 196.147 29.232 196.531 27.408H198.307C197.955 29.424 197.507 31.024 196.963 32.208C196.419 33.36 195.843 34.24 195.235 34.848C194.627 35.456 194.019 35.84 193.411 36C192.803 36.192 192.243 36.288 191.731 36.288C190.707 36.288 189.843 36.096 189.139 35.712C188.435 35.296 187.859 34.752 187.411 34.08C186.963 33.408 186.627 32.624 186.403 31.728C186.211 30.832 186.115 29.904 186.115 28.944C186.115 28.656 186.115 28.128 186.115 27.36C186.147 26.56 186.163 25.712 186.163 24.816C186.195 23.92 186.211 23.072 186.211 22.272C186.243 21.472 186.259 20.912 186.259 20.592C186.259 19.568 186.179 18.72 186.019 18.048C185.859 17.376 185.635 16.848 185.347 16.464C185.059 16.08 184.723 15.808 184.339 15.648C183.987 15.488 183.603 15.408 183.187 15.408C182.195 15.408 181.331 15.808 180.595 16.608C179.891 17.408 179.315 18.752 178.867 20.64V36H174.067V12H178.867ZM214.186 12V39.792C214.186 41.296 214.026 42.56 213.706 43.584C213.386 44.64 212.938 45.488 212.362 46.128C211.818 46.8 211.178 47.28 210.442 47.568C209.738 47.856 208.986 48 208.186 48C206.586 48 205.338 47.536 204.442 46.608C203.546 45.712 203.098 44.608 203.098 43.296C203.098 42.464 203.274 41.712 203.626 41.04C204.01 40.368 204.49 39.744 205.066 39.168C205.674 38.624 206.346 38.128 207.082 37.68C207.85 37.264 208.618 36.896 209.386 36.576V32.448C208.778 33.28 208.01 33.968 207.082 34.512C206.186 35.056 205.162 35.328 204.01 35.328C203.05 35.328 202.074 35.152 201.082 34.8C200.122 34.416 199.242 33.808 198.442 32.976C197.674 32.144 197.034 31.056 196.522 29.712C196.042 28.368 195.802 26.736 195.802 24.816C195.802 23.376 195.962 21.888 196.282 20.352C196.634 18.816 197.178 17.424 197.914 16.176C198.65 14.896 199.594 13.84 200.746 13.008C201.898 12.176 203.29 11.76 204.922 11.76C205.306 11.76 205.706 11.808 206.122 11.904C206.57 11.968 206.986 12.096 207.37 12.288C207.786 12.48 208.17 12.752 208.522 13.104C208.874 13.424 209.162 13.824 209.386 14.304V12H214.186ZM205.21 31.68C205.69 31.68 206.17 31.552 206.65 31.296C207.162 31.04 207.61 30.688 207.994 30.24C208.41 29.792 208.746 29.264 209.002 28.656C209.258 28.048 209.386 27.392 209.386 26.688V16.464C209.162 15.952 208.81 15.488 208.33 15.072C207.882 14.624 207.29 14.4 206.554 14.4C205.53 14.4 204.65 14.736 203.914 15.408C203.178 16.048 202.586 16.864 202.138 17.856C201.69 18.848 201.354 19.936 201.13 21.12C200.938 22.304 200.842 23.424 200.842 24.48C200.842 27.072 201.21 28.928 201.946 30.048C202.714 31.136 203.802 31.68 205.21 31.68ZM207.274 45.504C208.138 45.504 208.698 45.168 208.954 44.496C209.242 43.856 209.386 42.976 209.386 41.856V38.496C207.786 39.232 206.65 39.952 205.978 40.656C205.306 41.392 204.97 42.208 204.97 43.104C204.97 43.84 205.162 44.416 205.546 44.832C205.962 45.28 206.538 45.504 207.274 45.504Z" fill="black"/>
</g>
<defs>
<filter id="filter0_d" x="0.645676" y="0.0479965" width="229.54" height="70.7723" filterUnits="userSpaceOnUse" color-interpolation-filters="sRGB">
<feFlood flood-opacity="0" result="BackgroundImageFix"/>
<feColorMatrix in="SourceAlpha" type="matrix" values="0 0 0 0 0 0 0 0 0 0 0 0 0 0 0 0 0 0 127 0"/>
<feOffset dx="8" dy="8"/>
<feGaussianBlur stdDeviation="4"/>
<feColorMatrix type="matrix" values="0 0 0 0 0 0 0 0 0 0 0 0 0 0 0 0 0 0 0.25 0"/>
<feBlend mode="normal" in2="BackgroundImageFix" result="effect1_dropShadow"/>
<feBlend mode="normal" in="SourceGraphic" in2="effect1_dropShadow" result="shape"/>
</filter>
</defs>
</svg>
