<svg width="102" height="89" viewBox="0 0 102 89" fill="none" xmlns="http://www.w3.org/2000/svg">
<path d="M71.3301 67.2861C71.3301 79.2784 62.2416 89 51.0303 89L50.6316 75.8653C42.4838 84.3451 29.4522 84.5309 21.5247 76.2803L30.1667 66.6993C18.644 66.6993 9.30304 57.2404 9.30304 45.5723L21.9234 45.1573C13.7756 36.6775 13.5971 23.1149 21.5247 14.8643L30.7306 23.8584C30.7306 11.8662 39.8191 2.14458 51.0303 2.14458L51.429 15.2792C59.5768 6.79944 72.6084 6.61365 80.5359 14.8643L71.8939 24.4453C83.4166 24.4453 92.7576 33.9042 92.7576 45.5723L80.1372 45.9873C88.285 54.467 88.4635 68.0297 80.5359 76.2803L71.3301 67.2861Z" fill="#453227"/>
<path d="M59.498 29.24C58.8153 28.6853 57.706 28.216 56.17 27.832C54.6767 27.448 53.546 27.256 52.778 27.256C52.01 27.256 51.562 27.256 51.434 27.256C49.13 27.2987 47.466 27.896 46.442 29.048C45.418 30.1573 44.906 31.416 44.906 32.824C44.906 34.232 45.354 35.4267 46.25 36.408C47.146 37.3467 48.2553 38.0933 49.578 38.648C50.9433 39.16 52.394 39.7573 53.93 40.44C55.5087 41.1227 56.9593 41.8267 58.282 42.552C59.6473 43.2347 60.778 44.2587 61.674 45.624C62.57 46.9467 63.018 48.6107 63.018 50.616C63.018 52.6213 62.314 54.328 60.906 55.736C59.498 57.144 57.9193 58.0827 56.17 58.552C54.4633 59.0213 52.6073 59.256 50.602 59.256C46.25 59.256 42.986 58.296 40.81 56.376L41.194 55.992C42.0473 56.8027 43.306 57.464 44.97 57.976C46.6767 58.488 48.3193 58.744 49.898 58.744C52.4153 58.744 54.4847 58.0613 56.106 56.696C57.77 55.288 58.602 53.56 58.602 51.512C58.602 49.4213 57.9833 47.7573 56.746 46.52C55.5087 45.24 53.994 44.2587 52.202 43.576C50.4527 42.8507 48.682 42.1467 46.89 41.464C45.098 40.7387 43.5833 39.7573 42.346 38.52C41.1087 37.24 40.49 35.768 40.49 34.104C40.49 32.44 40.874 31.096 41.642 30.072C42.41 29.0053 43.434 28.2587 44.714 27.832C46.89 27.1067 49.066 26.744 51.242 26.744C54.9113 26.744 57.77 27.4267 59.818 28.792L59.498 29.24Z" fill="#D1B7A9"/>
<path d="M59.498 29.24L57.2909 31.9564L60.1814 34.3049L62.3461 31.2743L59.498 29.24ZM56.17 27.832L55.2984 31.2217L55.3097 31.2246L55.3211 31.2275L56.17 27.832ZM51.434 27.256V23.756H51.4016L51.3692 23.7566L51.434 27.256ZM46.442 29.048L49.0138 31.422L49.0361 31.3978L49.0579 31.3733L46.442 29.048ZM46.25 36.408L43.6653 38.7679L43.6915 38.7966L43.7183 38.8247L46.25 36.408ZM49.578 38.648L48.2245 41.8757L48.2863 41.9016L48.3491 41.9252L49.578 38.648ZM53.93 40.44L52.5085 43.6383L52.5246 43.6455L52.5408 43.6525L53.93 40.44ZM58.282 42.552L56.5991 45.6208L56.6573 45.6528L56.7168 45.6825L58.282 42.552ZM61.674 45.624L58.7478 47.5443L58.7619 47.5657L58.7763 47.587L61.674 45.624ZM60.906 55.736L58.4311 53.2611L58.4311 53.2611L60.906 55.736ZM56.17 58.552L55.2631 55.1716L55.2525 55.1744L55.242 55.1773L56.17 58.552ZM40.81 56.376L38.3351 53.9011L35.7007 56.5355L38.4943 59.0004L40.81 56.376ZM41.194 55.992L43.6046 53.4545L41.1314 51.1049L38.7191 53.5171L41.194 55.992ZM44.97 57.976L43.9407 61.3212L43.9525 61.3249L43.9643 61.3284L44.97 57.976ZM56.106 56.696L58.3605 59.3732L58.3668 59.3679L56.106 56.696ZM56.746 46.52L54.2295 48.9526L54.2502 48.9739L54.2711 48.9949L56.746 46.52ZM52.202 43.576L50.8614 46.8091L50.9085 46.8286L50.956 46.8467L52.202 43.576ZM46.89 41.464L45.5768 44.7083L45.6103 44.7219L45.644 44.7347L46.89 41.464ZM42.346 38.52L39.8295 40.9526L39.8502 40.9739L39.8711 40.9949L42.346 38.52ZM41.642 30.072L44.442 32.172L44.4625 32.1447L44.4824 32.1171L41.642 30.072ZM44.714 27.832L45.8208 31.1524L45.8208 31.1524L44.714 27.832ZM59.818 28.792L62.6661 30.8263L64.7671 27.8849L61.7595 25.8798L59.818 28.792ZM61.7051 26.5236C60.4233 25.4821 58.716 24.8608 57.0189 24.4365L55.3211 31.2275C55.9646 31.3884 56.445 31.5493 56.7903 31.6954C56.9603 31.7673 57.0839 31.8299 57.1695 31.8789C57.2117 31.9029 57.2421 31.9223 57.2625 31.9361C57.2829 31.9499 57.2916 31.957 57.2909 31.9564L61.7051 26.5236ZM57.0416 24.4423C55.4888 24.043 54.0059 23.756 52.778 23.756V30.756C53.0861 30.756 53.8646 30.853 55.2984 31.2217L57.0416 24.4423ZM52.778 23.756C52.7765 23.756 52.775 23.756 52.7735 23.756C52.772 23.756 52.7705 23.756 52.769 23.756C52.7675 23.756 52.766 23.756 52.7645 23.756C52.763 23.756 52.7615 23.756 52.7601 23.756C52.7586 23.756 52.7571 23.756 52.7556 23.756C52.7541 23.756 52.7526 23.756 52.7511 23.756C52.7496 23.756 52.7482 23.756 52.7467 23.756C52.7452 23.756 52.7437 23.756 52.7422 23.756C52.7408 23.756 52.7393 23.756 52.7378 23.756C52.7363 23.756 52.7348 23.756 52.7334 23.756C52.7319 23.756 52.7304 23.756 52.7289 23.756C52.7275 23.756 52.726 23.756 52.7245 23.756C52.7231 23.756 52.7216 23.756 52.7201 23.756C52.7187 23.756 52.7172 23.756 52.7157 23.756C52.7143 23.756 52.7128 23.756 52.7113 23.756C52.7099 23.756 52.7084 23.756 52.7069 23.756C52.7055 23.756 52.704 23.756 52.7026 23.756C52.7011 23.756 52.6996 23.756 52.6982 23.756C52.6967 23.756 52.6953 23.756 52.6938 23.756C52.6924 23.756 52.6909 23.756 52.6895 23.756C52.688 23.756 52.6866 23.756 52.6851 23.756C52.6837 23.756 52.6822 23.756 52.6808 23.756C52.6793 23.756 52.6779 23.756 52.6764 23.756C52.675 23.756 52.6736 23.756 52.6721 23.756C52.6707 23.756 52.6692 23.756 52.6678 23.756C52.6664 23.756 52.6649 23.756 52.6635 23.756C52.662 23.756 52.6606 23.756 52.6592 23.756C52.6577 23.756 52.6563 23.756 52.6549 23.756C52.6534 23.756 52.652 23.756 52.6506 23.756C52.6492 23.756 52.6477 23.756 52.6463 23.756C52.6449 23.756 52.6434 23.756 52.642 23.756C52.6406 23.756 52.6392 23.756 52.6378 23.756C52.6363 23.756 52.6349 23.756 52.6335 23.756C52.6321 23.756 52.6307 23.756 52.6292 23.756C52.6278 23.756 52.6264 23.756 52.625 23.756C52.6236 23.756 52.6222 23.756 52.6207 23.756C52.6193 23.756 52.6179 23.756 52.6165 23.756C52.6151 23.756 52.6137 23.756 52.6123 23.756C52.6109 23.756 52.6095 23.756 52.6081 23.756C52.6067 23.756 52.6053 23.756 52.6039 23.756C52.6025 23.756 52.6011 23.756 52.5997 23.756C52.5983 23.756 52.5969 23.756 52.5955 23.756C52.5941 23.756 52.5927 23.756 52.5913 23.756C52.5899 23.756 52.5885 23.756 52.5871 23.756C52.5857 23.756 52.5843 23.756 52.5829 23.756C52.5815 23.756 52.5801 23.756 52.5787 23.756C52.5774 23.756 52.576 23.756 52.5746 23.756C52.5732 23.756 52.5718 23.756 52.5704 23.756C52.5691 23.756 52.5677 23.756 52.5663 23.756C52.5649 23.756 52.5635 23.756 52.5622 23.756C52.5608 23.756 52.5594 23.756 52.558 23.756C52.5567 23.756 52.5553 23.756 52.5539 23.756C52.5525 23.756 52.5512 23.756 52.5498 23.756C52.5484 23.756 52.547 23.756 52.5457 23.756C52.5443 23.756 52.5429 23.756 52.5416 23.756C52.5402 23.756 52.5388 23.756 52.5375 23.756C52.5361 23.756 52.5348 23.756 52.5334 23.756C52.532 23.756 52.5307 23.756 52.5293 23.756C52.528 23.756 52.5266 23.756 52.5252 23.756C52.5239 23.756 52.5225 23.756 52.5212 23.756C52.5198 23.756 52.5185 23.756 52.5171 23.756C52.5158 23.756 52.5144 23.756 52.5131 23.756C52.5117 23.756 52.5104 23.756 52.509 23.756C52.5077 23.756 52.5063 23.756 52.505 23.756C52.5037 23.756 52.5023 23.756 52.501 23.756C52.4996 23.756 52.4983 23.756 52.497 23.756C52.4956 23.756 52.4943 23.756 52.4929 23.756C52.4916 23.756 52.4903 23.756 52.4889 23.756C52.4876 23.756 52.4863 23.756 52.4849 23.756C52.4836 23.756 52.4823 23.756 52.4809 23.756C52.4796 23.756 52.4783 23.756 52.477 23.756C52.4756 23.756 52.4743 23.756 52.473 23.756C52.4717 23.756 52.4703 23.756 52.469 23.756C52.4677 23.756 52.4664 23.756 52.4651 23.756C52.4637 23.756 52.4624 23.756 52.4611 23.756C52.4598 23.756 52.4585 23.756 52.4572 23.756C52.4558 23.756 52.4545 23.756 52.4532 23.756C52.4519 23.756 52.4506 23.756 52.4493 23.756C52.448 23.756 52.4467 23.756 52.4454 23.756C52.444 23.756 52.4427 23.756 52.4414 23.756C52.4401 23.756 52.4388 23.756 52.4375 23.756C52.4362 23.756 52.4349 23.756 52.4336 23.756C52.4323 23.756 52.431 23.756 52.4297 23.756C52.4284 23.756 52.4271 23.756 52.4258 23.756C52.4245 23.756 52.4233 23.756 52.422 23.756C52.4207 23.756 52.4194 23.756 52.4181 23.756C52.4168 23.756 52.4155 23.756 52.4142 23.756C52.4129 23.756 52.4116 23.756 52.4104 23.756C52.4091 23.756 52.4078 23.756 52.4065 23.756C52.4052 23.756 52.4039 23.756 52.4027 23.756C52.4014 23.756 52.4001 23.756 52.3988 23.756C52.3975 23.756 52.3963 23.756 52.395 23.756C52.3937 23.756 52.3924 23.756 52.3912 23.756C52.3899 23.756 52.3886 23.756 52.3874 23.756C52.3861 23.756 52.3848 23.756 52.3836 23.756C52.3823 23.756 52.381 23.756 52.3798 23.756C52.3785 23.756 52.3772 23.756 52.376 23.756C52.3747 23.756 52.3734 23.756 52.3722 23.756C52.3709 23.756 52.3697 23.756 52.3684 23.756C52.3671 23.756 52.3659 23.756 52.3646 23.756C52.3634 23.756 52.3621 23.756 52.3609 23.756C52.3596 23.756 52.3584 23.756 52.3571 23.756C52.3559 23.756 52.3546 23.756 52.3534 23.756C52.3521 23.756 52.3509 23.756 52.3496 23.756C52.3484 23.756 52.3471 23.756 52.3459 23.756C52.3446 23.756 52.3434 23.756 52.3421 23.756C52.3409 23.756 52.3397 23.756 52.3384 23.756C52.3372 23.756 52.336 23.756 52.3347 23.756C52.3335 23.756 52.3322 23.756 52.331 23.756C52.3298 23.756 52.3285 23.756 52.3273 23.756C52.3261 23.756 52.3249 23.756 52.3236 23.756C52.3224 23.756 52.3212 23.756 52.3199 23.756C52.3187 23.756 52.3175 23.756 52.3163 23.756C52.315 23.756 52.3138 23.756 52.3126 23.756C52.3114 23.756 52.3102 23.756 52.3089 23.756C52.3077 23.756 52.3065 23.756 52.3053 23.756C52.3041 23.756 52.3028 23.756 52.3016 23.756C52.3004 23.756 52.2992 23.756 52.298 23.756C52.2968 23.756 52.2956 23.756 52.2944 23.756C52.2932 23.756 52.2919 23.756 52.2907 23.756C52.2895 23.756 52.2883 23.756 52.2871 23.756C52.2859 23.756 52.2847 23.756 52.2835 23.756C52.2823 23.756 52.2811 23.756 52.2799 23.756C52.2787 23.756 52.2775 23.756 52.2763 23.756C52.2751 23.756 52.2739 23.756 52.2727 23.756C52.2715 23.756 52.2703 23.756 52.2691 23.756C52.2679 23.756 52.2668 23.756 52.2656 23.756C52.2644 23.756 52.2632 23.756 52.262 23.756C52.2608 23.756 52.2596 23.756 52.2584 23.756C52.2573 23.756 52.2561 23.756 52.2549 23.756C52.2537 23.756 52.2525 23.756 52.2513 23.756C52.2502 23.756 52.249 23.756 52.2478 23.756C52.2466 23.756 52.2455 23.756 52.2443 23.756C52.2431 23.756 52.2419 23.756 52.2408 23.756C52.2396 23.756 52.2384 23.756 52.2372 23.756C52.2361 23.756 52.2349 23.756 52.2337 23.756C52.2326 23.756 52.2314 23.756 52.2302 23.756C52.2291 23.756 52.2279 23.756 52.2267 23.756C52.2256 23.756 52.2244 23.756 52.2233 23.756C52.2221 23.756 52.2209 23.756 52.2198 23.756C52.2186 23.756 52.2175 23.756 52.2163 23.756C52.2152 23.756 52.214 23.756 52.2128 23.756C52.2117 23.756 52.2105 23.756 52.2094 23.756C52.2082 23.756 52.2071 23.756 52.2059 23.756C52.2048 23.756 52.2036 23.756 52.2025 23.756C52.2014 23.756 52.2002 23.756 52.1991 23.756C52.1979 23.756 52.1968 23.756 52.1956 23.756C52.1945 23.756 52.1934 23.756 52.1922 23.756C52.1911 23.756 52.1899 23.756 52.1888 23.756C52.1877 23.756 52.1865 23.756 52.1854 23.756C52.1843 23.756 52.1831 23.756 52.182 23.756C52.1809 23.756 52.1797 23.756 52.1786 23.756C52.1775 23.756 52.1764 23.756 52.1752 23.756C52.1741 23.756 52.173 23.756 52.1719 23.756C52.1707 23.756 52.1696 23.756 52.1685 23.756C52.1674 23.756 52.1662 23.756 52.1651 23.756C52.164 23.756 52.1629 23.756 52.1618 23.756C52.1607 23.756 52.1595 23.756 52.1584 23.756C52.1573 23.756 52.1562 23.756 52.1551 23.756C52.154 23.756 52.1529 23.756 52.1518 23.756C52.1506 23.756 52.1495 23.756 52.1484 23.756C52.1473 23.756 52.1462 23.756 52.1451 23.756C52.144 23.756 52.1429 23.756 52.1418 23.756C52.1407 23.756 52.1396 23.756 52.1385 23.756C52.1374 23.756 52.1363 23.756 52.1352 23.756C52.1341 23.756 52.133 23.756 52.1319 23.756C52.1308 23.756 52.1297 23.756 52.1286 23.756C52.1275 23.756 52.1264 23.756 52.1254 23.756C52.1243 23.756 52.1232 23.756 52.1221 23.756C52.121 23.756 52.1199 23.756 52.1188 23.756C52.1178 23.756 52.1167 23.756 52.1156 23.756C52.1145 23.756 52.1134 23.756 52.1123 23.756C52.1113 23.756 52.1102 23.756 52.1091 23.756C52.108 23.756 52.1069 23.756 52.1059 23.756C52.1048 23.756 52.1037 23.756 52.1027 23.756C52.1016 23.756 52.1005 23.756 52.0994 23.756C52.0984 23.756 52.0973 23.756 52.0962 23.756C52.0952 23.756 52.0941 23.756 52.093 23.756C52.092 23.756 52.0909 23.756 52.0898 23.756C52.0888 23.756 52.0877 23.756 52.0867 23.756C52.0856 23.756 52.0845 23.756 52.0835 23.756C52.0824 23.756 52.0814 23.756 52.0803 23.756C52.0792 23.756 52.0782 23.756 52.0771 23.756C52.0761 23.756 52.075 23.756 52.074 23.756C52.0729 23.756 52.0719 23.756 52.0708 23.756C52.0698 23.756 52.0687 23.756 52.0677 23.756C52.0666 23.756 52.0656 23.756 52.0646 23.756C52.0635 23.756 52.0625 23.756 52.0614 23.756C52.0604 23.756 52.0594 23.756 52.0583 23.756C52.0573 23.756 52.0562 23.756 52.0552 23.756C52.0542 23.756 52.0531 23.756 52.0521 23.756C52.0511 23.756 52.05 23.756 52.049 23.756C52.048 23.756 52.0469 23.756 52.0459 23.756C52.0449 23.756 52.0439 23.756 52.0428 23.756C52.0418 23.756 52.0408 23.756 52.0398 23.756C52.0387 23.756 52.0377 23.756 52.0367 23.756C52.0357 23.756 52.0346 23.756 52.0336 23.756C52.0326 23.756 52.0316 23.756 52.0306 23.756C52.0296 23.756 52.0285 23.756 52.0275 23.756C52.0265 23.756 52.0255 23.756 52.0245 23.756C52.0235 23.756 52.0225 23.756 52.0215 23.756C52.0204 23.756 52.0194 23.756 52.0184 23.756C52.0174 23.756 52.0164 23.756 52.0154 23.756C52.0144 23.756 52.0134 23.756 52.0124 23.756C52.0114 23.756 52.0104 23.756 52.0094 23.756C52.0084 23.756 52.0074 23.756 52.0064 23.756C52.0054 23.756 52.0044 23.756 52.0034 23.756C52.0024 23.756 52.0014 23.756 52.0004 23.756C51.9994 23.756 51.9985 23.756 51.9975 23.756C51.9965 23.756 51.9955 23.756 51.9945 23.756C51.9935 23.756 51.9925 23.756 51.9915 23.756C51.9906 23.756 51.9896 23.756 51.9886 23.756C51.9876 23.756 51.9866 23.756 51.9856 23.756C51.9847 23.756 51.9837 23.756 51.9827 23.756C51.9817 23.756 51.9808 23.756 51.9798 23.756C51.9788 23.756 51.9778 23.756 51.9769 23.756C51.9759 23.756 51.9749 23.756 51.9739 23.756C51.973 23.756 51.972 23.756 51.971 23.756C51.9701 23.756 51.9691 23.756 51.9681 23.756C51.9672 23.756 51.9662 23.756 51.9652 23.756C51.9643 23.756 51.9633 23.756 51.9624 23.756C51.9614 23.756 51.9604 23.756 51.9595 23.756C51.9585 23.756 51.9576 23.756 51.9566 23.756C51.9557 23.756 51.9547 23.756 51.9538 23.756C51.9528 23.756 51.9518 23.756 51.9509 23.756C51.9499 23.756 51.949 23.756 51.948 23.756C51.9471 23.756 51.9462 23.756 51.9452 23.756C51.9443 23.756 51.9433 23.756 51.9424 23.756C51.9414 23.756 51.9405 23.756 51.9395 23.756C51.9386 23.756 51.9377 23.756 51.9367 23.756C51.9358 23.756 51.9349 23.756 51.9339 23.756C51.933 23.756 51.932 23.756 51.9311 23.756C51.9302 23.756 51.9292 23.756 51.9283 23.756C51.9274 23.756 51.9265 23.756 51.9255 23.756C51.9246 23.756 51.9237 23.756 51.9227 23.756C51.9218 23.756 51.9209 23.756 51.92 23.756C51.919 23.756 51.9181 23.756 51.9172 23.756C51.9163 23.756 51.9154 23.756 51.9144 23.756C51.9135 23.756 51.9126 23.756 51.9117 23.756C51.9108 23.756 51.9099 23.756 51.9089 23.756C51.908 23.756 51.9071 23.756 51.9062 23.756C51.9053 23.756 51.9044 23.756 51.9035 23.756C51.9026 23.756 51.9017 23.756 51.9007 23.756C51.8998 23.756 51.8989 23.756 51.898 23.756C51.8971 23.756 51.8962 23.756 51.8953 23.756C51.8944 23.756 51.8935 23.756 51.8926 23.756C51.8917 23.756 51.8908 23.756 51.8899 23.756C51.889 23.756 51.8881 23.756 51.8872 23.756C51.8863 23.756 51.8854 23.756 51.8846 23.756C51.8837 23.756 51.8828 23.756 51.8819 23.756C51.881 23.756 51.8801 23.756 51.8792 23.756C51.8783 23.756 51.8774 23.756 51.8766 23.756C51.8757 23.756 51.8748 23.756 51.8739 23.756C51.873 23.756 51.8721 23.756 51.8713 23.756C51.8704 23.756 51.8695 23.756 51.8686 23.756C51.8678 23.756 51.8669 23.756 51.866 23.756C51.8651 23.756 51.8643 23.756 51.8634 23.756C51.8625 23.756 51.8616 23.756 51.8608 23.756C51.8599 23.756 51.859 23.756 51.8582 23.756C51.8573 23.756 51.8564 23.756 51.8556 23.756C51.8547 23.756 51.8538 23.756 51.853 23.756C51.8521 23.756 51.8512 23.756 51.8504 23.756C51.8495 23.756 51.8487 23.756 51.8478 23.756C51.8469 23.756 51.8461 23.756 51.8452 23.756C51.8444 23.756 51.8435 23.756 51.8427 23.756C51.8418 23.756 51.841 23.756 51.8401 23.756C51.8393 23.756 51.8384 23.756 51.8376 23.756C51.8367 23.756 51.8359 23.756 51.835 23.756C51.8342 23.756 51.8333 23.756 51.8325 23.756C51.8317 23.756 51.8308 23.756 51.83 23.756C51.8291 23.756 51.8283 23.756 51.8274 23.756C51.8266 23.756 51.8258 23.756 51.8249 23.756C51.8241 23.756 51.8233 23.756 51.8224 23.756C51.8216 23.756 51.8208 23.756 51.8199 23.756C51.8191 23.756 51.8183 23.756 51.8174 23.756C51.8166 23.756 51.8158 23.756 51.815 23.756C51.8141 23.756 51.8133 23.756 51.8125 23.756C51.8117 23.756 51.8108 23.756 51.81 23.756C51.8092 23.756 51.8084 23.756 51.8076 23.756C51.8067 23.756 51.8059 23.756 51.8051 23.756C51.8043 23.756 51.8035 23.756 51.8027 23.756C51.8019 23.756 51.801 23.756 51.8002 23.756C51.7994 23.756 51.7986 23.756 51.7978 23.756C51.797 23.756 51.7962 23.756 51.7954 23.756C51.7946 23.756 51.7938 23.756 51.793 23.756C51.7922 23.756 51.7913 23.756 51.7905 23.756C51.7897 23.756 51.7889 23.756 51.7881 23.756C51.7873 23.756 51.7865 23.756 51.7858 23.756C51.785 23.756 51.7842 23.756 51.7834 23.756C51.7826 23.756 51.7818 23.756 51.781 23.756C51.7802 23.756 51.7794 23.756 51.7786 23.756C51.7778 23.756 51.777 23.756 51.7762 23.756C51.7755 23.756 51.7747 23.756 51.7739 23.756C51.7731 23.756 51.7723 23.756 51.7715 23.756C51.7708 23.756 51.77 23.756 51.7692 23.756C51.7684 23.756 51.7676 23.756 51.7669 23.756C51.7661 23.756 51.7653 23.756 51.7645 23.756C51.7638 23.756 51.763 23.756 51.7622 23.756C51.7614 23.756 51.7607 23.756 51.7599 23.756C51.7591 23.756 51.7584 23.756 51.7576 23.756C51.7568 23.756 51.7561 23.756 51.7553 23.756C51.7545 23.756 51.7538 23.756 51.753 23.756C51.7522 23.756 51.7515 23.756 51.7507 23.756C51.75 23.756 51.7492 23.756 51.7484 23.756C51.7477 23.756 51.7469 23.756 51.7462 23.756C51.7454 23.756 51.7447 23.756 51.7439 23.756C51.7432 23.756 51.7424 23.756 51.7417 23.756C51.7409 23.756 51.7402 23.756 51.7394 23.756C51.7387 23.756 51.7379 23.756 51.7372 23.756C51.7364 23.756 51.7357 23.756 51.7349 23.756C51.7342 23.756 51.7334 23.756 51.7327 23.756C51.732 23.756 51.7312 23.756 51.7305 23.756C51.7297 23.756 51.729 23.756 51.7283 23.756C51.7275 23.756 51.7268 23.756 51.7261 23.756C51.7253 23.756 51.7246 23.756 51.7239 23.756C51.7231 23.756 51.7224 23.756 51.7217 23.756C51.721 23.756 51.7202 23.756 51.7195 23.756C51.7188 23.756 51.7181 23.756 51.7173 23.756C51.7166 23.756 51.7159 23.756 51.7152 23.756C51.7144 23.756 51.7137 23.756 51.713 23.756C51.7123 23.756 51.7116 23.756 51.7108 23.756C51.7101 23.756 51.7094 23.756 51.7087 23.756C51.708 23.756 51.7073 23.756 51.7066 23.756C51.7059 23.756 51.7051 23.756 51.7044 23.756C51.7037 23.756 51.703 23.756 51.7023 23.756C51.7016 23.756 51.7009 23.756 51.7002 23.756C51.6995 23.756 51.6988 23.756 51.6981 23.756C51.6974 23.756 51.6967 23.756 51.696 23.756C51.6953 23.756 51.6946 23.756 51.6939 23.756C51.6932 23.756 51.6925 23.756 51.6918 23.756C51.6911 23.756 51.6904 23.756 51.6897 23.756C51.689 23.756 51.6883 23.756 51.6877 23.756C51.687 23.756 51.6863 23.756 51.6856 23.756C51.6849 23.756 51.6842 23.756 51.6835 23.756C51.6828 23.756 51.6822 23.756 51.6815 23.756C51.6808 23.756 51.6801 23.756 51.6794 23.756C51.6788 23.756 51.6781 23.756 51.6774 23.756C51.6767 23.756 51.676 23.756 51.6754 23.756C51.6747 23.756 51.674 23.756 51.6734 23.756C51.6727 23.756 51.672 23.756 51.6713 23.756C51.6707 23.756 51.67 23.756 51.6693 23.756C51.6687 23.756 51.668 23.756 51.6673 23.756C51.6667 23.756 51.666 23.756 51.6653 23.756C51.6647 23.756 51.664 23.756 51.6634 23.756C51.6627 23.756 51.662 23.756 51.6614 23.756C51.6607 23.756 51.6601 23.756 51.6594 23.756C51.6588 23.756 51.6581 23.756 51.6575 23.756C51.6568 23.756 51.6561 23.756 51.6555 23.756C51.6548 23.756 51.6542 23.756 51.6535 23.756C51.6529 23.756 51.6523 23.756 51.6516 23.756C51.651 23.756 51.6503 23.756 51.6497 23.756C51.649 23.756 51.6484 23.756 51.6478 23.756C51.6471 23.756 51.6465 23.756 51.6458 23.756C51.6452 23.756 51.6446 23.756 51.6439 23.756C51.6433 23.756 51.6427 23.756 51.642 23.756C51.6414 23.756 51.6408 23.756 51.6401 23.756C51.6395 23.756 51.6389 23.756 51.6382 23.756C51.6376 23.756 51.637 23.756 51.6364 23.756C51.6357 23.756 51.6351 23.756 51.6345 23.756C51.6339 23.756 51.6332 23.756 51.6326 23.756C51.632 23.756 51.6314 23.756 51.6308 23.756C51.6301 23.756 51.6295 23.756 51.6289 23.756C51.6283 23.756 51.6277 23.756 51.6271 23.756C51.6264 23.756 51.6258 23.756 51.6252 23.756C51.6246 23.756 51.624 23.756 51.6234 23.756C51.6228 23.756 51.6222 23.756 51.6216 23.756C51.621 23.756 51.6204 23.756 51.6197 23.756C51.6191 23.756 51.6185 23.756 51.6179 23.756C51.6173 23.756 51.6167 23.756 51.6161 23.756C51.6155 23.756 51.6149 23.756 51.6143 23.756C51.6137 23.756 51.6132 23.756 51.6126 23.756C51.612 23.756 51.6114 23.756 51.6108 23.756C51.6102 23.756 51.6096 23.756 51.609 23.756C51.6084 23.756 51.6078 23.756 51.6072 23.756C51.6067 23.756 51.6061 23.756 51.6055 23.756C51.6049 23.756 51.6043 23.756 51.6037 23.756C51.6032 23.756 51.6026 23.756 51.602 23.756C51.6014 23.756 51.6008 23.756 51.6003 23.756C51.5997 23.756 51.5991 23.756 51.5985 23.756C51.598 23.756 51.5974 23.756 51.5968 23.756C51.5962 23.756 51.5957 23.756 51.5951 23.756C51.5945 23.756 51.594 23.756 51.5934 23.756C51.5928 23.756 51.5923 23.756 51.5917 23.756C51.5911 23.756 51.5906 23.756 51.59 23.756C51.5894 23.756 51.5889 23.756 51.5883 23.756C51.5878 23.756 51.5872 23.756 51.5866 23.756C51.5861 23.756 51.5855 23.756 51.585 23.756C51.5844 23.756 51.5839 23.756 51.5833 23.756C51.5828 23.756 51.5822 23.756 51.5817 23.756C51.5811 23.756 51.5806 23.756 51.58 23.756C51.5795 23.756 51.5789 23.756 51.5784 23.756C51.5778 23.756 51.5773 23.756 51.5767 23.756C51.5762 23.756 51.5757 23.756 51.5751 23.756C51.5746 23.756 51.574 23.756 51.5735 23.756C51.573 23.756 51.5724 23.756 51.5719 23.756C51.5713 23.756 51.5708 23.756 51.5703 23.756C51.5697 23.756 51.5692 23.756 51.5687 23.756C51.5682 23.756 51.5676 23.756 51.5671 23.756C51.5666 23.756 51.566 23.756 51.5655 23.756C51.565 23.756 51.5645 23.756 51.5639 23.756C51.5634 23.756 51.5629 23.756 51.5624 23.756C51.5619 23.756 51.5613 23.756 51.5608 23.756C51.5603 23.756 51.5598 23.756 51.5593 23.756C51.5587 23.756 51.5582 23.756 51.5577 23.756C51.5572 23.756 51.5567 23.756 51.5562 23.756C51.5557 23.756 51.5552 23.756 51.5546 23.756C51.5541 23.756 51.5536 23.756 51.5531 23.756C51.5526 23.756 51.5521 23.756 51.5516 23.756C51.5511 23.756 51.5506 23.756 51.5501 23.756C51.5496 23.756 51.5491 23.756 51.5486 23.756C51.5481 23.756 51.5476 23.756 51.5471 23.756C51.5466 23.756 51.5461 23.756 51.5456 23.756C51.5451 23.756 51.5446 23.756 51.5441 23.756C51.5437 23.756 51.5432 23.756 51.5427 23.756C51.5422 23.756 51.5417 23.756 51.5412 23.756C51.5407 23.756 51.5402 23.756 51.5398 23.756C51.5393 23.756 51.5388 23.756 51.5383 23.756C51.5378 23.756 51.5373 23.756 51.5369 23.756C51.5364 23.756 51.5359 23.756 51.5354 23.756C51.5349 23.756 51.5345 23.756 51.534 23.756C51.5335 23.756 51.533 23.756 51.5326 23.756C51.5321 23.756 51.5316 23.756 51.5312 23.756C51.5307 23.756 51.5302 23.756 51.5298 23.756C51.5293 23.756 51.5288 23.756 51.5284 23.756C51.5279 23.756 51.5274 23.756 51.527 23.756C51.5265 23.756 51.526 23.756 51.5256 23.756C51.5251 23.756 51.5247 23.756 51.5242 23.756C51.5238 23.756 51.5233 23.756 51.5228 23.756C51.5224 23.756 51.5219 23.756 51.5215 23.756C51.521 23.756 51.5206 23.756 51.5201 23.756C51.5197 23.756 51.5192 23.756 51.5188 23.756C51.5183 23.756 51.5179 23.756 51.5174 23.756C51.517 23.756 51.5165 23.756 51.5161 23.756C51.5157 23.756 51.5152 23.756 51.5148 23.756C51.5143 23.756 51.5139 23.756 51.5135 23.756C51.513 23.756 51.5126 23.756 51.5122 23.756C51.5117 23.756 51.5113 23.756 51.5109 23.756C51.5104 23.756 51.51 23.756 51.5096 23.756C51.5091 23.756 51.5087 23.756 51.5083 23.756C51.5078 23.756 51.5074 23.756 51.507 23.756C51.5066 23.756 51.5061 23.756 51.5057 23.756C51.5053 23.756 51.5049 23.756 51.5044 23.756C51.504 23.756 51.5036 23.756 51.5032 23.756C51.5028 23.756 51.5024 23.756 51.5019 23.756C51.5015 23.756 51.5011 23.756 51.5007 23.756C51.5003 23.756 51.4999 23.756 51.4995 23.756C51.499 23.756 51.4986 23.756 51.4982 23.756C51.4978 23.756 51.4974 23.756 51.497 23.756C51.4966 23.756 51.4962 23.756 51.4958 23.756C51.4954 23.756 51.495 23.756 51.4946 23.756C51.4942 23.756 51.4938 23.756 51.4934 23.756C51.493 23.756 51.4926 23.756 51.4922 23.756C51.4918 23.756 51.4914 23.756 51.491 23.756C51.4906 23.756 51.4902 23.756 51.4898 23.756C51.4894 23.756 51.489 23.756 51.4886 23.756C51.4883 23.756 51.4879 23.756 51.4875 23.756C51.4871 23.756 51.4867 23.756 51.4863 23.756C51.4859 23.756 51.4856 23.756 51.4852 23.756C51.4848 23.756 51.4844 23.756 51.484 23.756C51.4837 23.756 51.4833 23.756 51.4829 23.756C51.4825 23.756 51.4822 23.756 51.4818 23.756C51.4814 23.756 51.481 23.756 51.4807 23.756C51.4803 23.756 51.4799 23.756 51.4795 23.756C51.4792 23.756 51.4788 23.756 51.4784 23.756C51.4781 23.756 51.4777 23.756 51.4773 23.756C51.477 23.756 51.4766 23.756 51.4762 23.756C51.4759 23.756 51.4755 23.756 51.4752 23.756C51.4748 23.756 51.4744 23.756 51.4741 23.756C51.4737 23.756 51.4734 23.756 51.473 23.756C51.4727 23.756 51.4723 23.756 51.472 23.756C51.4716 23.756 51.4713 23.756 51.4709 23.756C51.4706 23.756 51.4702 23.756 51.4699 23.756C51.4695 23.756 51.4692 23.756 51.4688 23.756C51.4685 23.756 51.4681 23.756 51.4678 23.756C51.4674 23.756 51.4671 23.756 51.4668 23.756C51.4664 23.756 51.4661 23.756 51.4657 23.756C51.4654 23.756 51.4651 23.756 51.4647 23.756C51.4644 23.756 51.4641 23.756 51.4637 23.756C51.4634 23.756 51.4631 23.756 51.4627 23.756C51.4624 23.756 51.4621 23.756 51.4618 23.756C51.4614 23.756 51.4611 23.756 51.4608 23.756C51.4604 23.756 51.4601 23.756 51.4598 23.756C51.4595 23.756 51.4592 23.756 51.4588 23.756C51.4585 23.756 51.4582 23.756 51.4579 23.756C51.4576 23.756 51.4572 23.756 51.4569 23.756C51.4566 23.756 51.4563 23.756 51.456 23.756C51.4557 23.756 51.4554 23.756 51.455 23.756C51.4547 23.756 51.4544 23.756 51.4541 23.756C51.4538 23.756 51.4535 23.756 51.4532 23.756C51.4529 23.756 51.4526 23.756 51.4523 23.756C51.452 23.756 51.4517 23.756 51.4514 23.756C51.4511 23.756 51.4508 23.756 51.4505 23.756C51.4502 23.756 51.4499 23.756 51.4496 23.756C51.4493 23.756 51.449 23.756 51.4487 23.756C51.4484 23.756 51.4481 23.756 51.4478 23.756C51.4475 23.756 51.4472 23.756 51.4469 23.756C51.4466 23.756 51.4464 23.756 51.4461 23.756C51.4458 23.756 51.4455 23.756 51.4452 23.756C51.4449 23.756 51.4447 23.756 51.4444 23.756C51.4441 23.756 51.4438 23.756 51.4435 23.756C51.4432 23.756 51.443 23.756 51.4427 23.756C51.4424 23.756 51.4421 23.756 51.4419 23.756C51.4416 23.756 51.4413 23.756 51.441 23.756C51.4408 23.756 51.4405 23.756 51.4402 23.756C51.44 23.756 51.4397 23.756 51.4394 23.756C51.4392 23.756 51.4389 23.756 51.4386 23.756C51.4384 23.756 51.4381 23.756 51.4378 23.756C51.4376 23.756 51.4373 23.756 51.4371 23.756C51.4368 23.756 51.4365 23.756 51.4363 23.756C51.436 23.756 51.4358 23.756 51.4355 23.756C51.4353 23.756 51.435 23.756 51.4348 23.756C51.4345 23.756 51.4343 23.756 51.434 23.756V30.756C51.4343 30.756 51.4345 30.756 51.4348 30.756C51.435 30.756 51.4353 30.756 51.4355 30.756C51.4358 30.756 51.436 30.756 51.4363 30.756C51.4365 30.756 51.4368 30.756 51.4371 30.756C51.4373 30.756 51.4376 30.756 51.4378 30.756C51.4381 30.756 51.4384 30.756 51.4386 30.756C51.4389 30.756 51.4392 30.756 51.4394 30.756C51.4397 30.756 51.44 30.756 51.4402 30.756C51.4405 30.756 51.4408 30.756 51.441 30.756C51.4413 30.756 51.4416 30.756 51.4419 30.756C51.4421 30.756 51.4424 30.756 51.4427 30.756C51.443 30.756 51.4432 30.756 51.4435 30.756C51.4438 30.756 51.4441 30.756 51.4444 30.756C51.4447 30.756 51.4449 30.756 51.4452 30.756C51.4455 30.756 51.4458 30.756 51.4461 30.756C51.4464 30.756 51.4466 30.756 51.4469 30.756C51.4472 30.756 51.4475 30.756 51.4478 30.756C51.4481 30.756 51.4484 30.756 51.4487 30.756C51.449 30.756 51.4493 30.756 51.4496 30.756C51.4499 30.756 51.4502 30.756 51.4505 30.756C51.4508 30.756 51.4511 30.756 51.4514 30.756C51.4517 30.756 51.452 30.756 51.4523 30.756C51.4526 30.756 51.4529 30.756 51.4532 30.756C51.4535 30.756 51.4538 30.756 51.4541 30.756C51.4544 30.756 51.4547 30.756 51.455 30.756C51.4554 30.756 51.4557 30.756 51.456 30.756C51.4563 30.756 51.4566 30.756 51.4569 30.756C51.4572 30.756 51.4576 30.756 51.4579 30.756C51.4582 30.756 51.4585 30.756 51.4588 30.756C51.4592 30.756 51.4595 30.756 51.4598 30.756C51.4601 30.756 51.4604 30.756 51.4608 30.756C51.4611 30.756 51.4614 30.756 51.4618 30.756C51.4621 30.756 51.4624 30.756 51.4627 30.756C51.4631 30.756 51.4634 30.756 51.4637 30.756C51.4641 30.756 51.4644 30.756 51.4647 30.756C51.4651 30.756 51.4654 30.756 51.4657 30.756C51.4661 30.756 51.4664 30.756 51.4668 30.756C51.4671 30.756 51.4674 30.756 51.4678 30.756C51.4681 30.756 51.4685 30.756 51.4688 30.756C51.4692 30.756 51.4695 30.756 51.4699 30.756C51.4702 30.756 51.4706 30.756 51.4709 30.756C51.4713 30.756 51.4716 30.756 51.472 30.756C51.4723 30.756 51.4727 30.756 51.473 30.756C51.4734 30.756 51.4737 30.756 51.4741 30.756C51.4744 30.756 51.4748 30.756 51.4752 30.756C51.4755 30.756 51.4759 30.756 51.4762 30.756C51.4766 30.756 51.477 30.756 51.4773 30.756C51.4777 30.756 51.4781 30.756 51.4784 30.756C51.4788 30.756 51.4792 30.756 51.4795 30.756C51.4799 30.756 51.4803 30.756 51.4807 30.756C51.481 30.756 51.4814 30.756 51.4818 30.756C51.4822 30.756 51.4825 30.756 51.4829 30.756C51.4833 30.756 51.4837 30.756 51.484 30.756C51.4844 30.756 51.4848 30.756 51.4852 30.756C51.4856 30.756 51.4859 30.756 51.4863 30.756C51.4867 30.756 51.4871 30.756 51.4875 30.756C51.4879 30.756 51.4883 30.756 51.4886 30.756C51.489 30.756 51.4894 30.756 51.4898 30.756C51.4902 30.756 51.4906 30.756 51.491 30.756C51.4914 30.756 51.4918 30.756 51.4922 30.756C51.4926 30.756 51.493 30.756 51.4934 30.756C51.4938 30.756 51.4942 30.756 51.4946 30.756C51.495 30.756 51.4954 30.756 51.4958 30.756C51.4962 30.756 51.4966 30.756 51.497 30.756C51.4974 30.756 51.4978 30.756 51.4982 30.756C51.4986 30.756 51.499 30.756 51.4995 30.756C51.4999 30.756 51.5003 30.756 51.5007 30.756C51.5011 30.756 51.5015 30.756 51.5019 30.756C51.5024 30.756 51.5028 30.756 51.5032 30.756C51.5036 30.756 51.504 30.756 51.5044 30.756C51.5049 30.756 51.5053 30.756 51.5057 30.756C51.5061 30.756 51.5066 30.756 51.507 30.756C51.5074 30.756 51.5078 30.756 51.5083 30.756C51.5087 30.756 51.5091 30.756 51.5096 30.756C51.51 30.756 51.5104 30.756 51.5109 30.756C51.5113 30.756 51.5117 30.756 51.5122 30.756C51.5126 30.756 51.513 30.756 51.5135 30.756C51.5139 30.756 51.5143 30.756 51.5148 30.756C51.5152 30.756 51.5157 30.756 51.5161 30.756C51.5165 30.756 51.517 30.756 51.5174 30.756C51.5179 30.756 51.5183 30.756 51.5188 30.756C51.5192 30.756 51.5197 30.756 51.5201 30.756C51.5206 30.756 51.521 30.756 51.5215 30.756C51.5219 30.756 51.5224 30.756 51.5228 30.756C51.5233 30.756 51.5238 30.756 51.5242 30.756C51.5247 30.756 51.5251 30.756 51.5256 30.756C51.526 30.756 51.5265 30.756 51.527 30.756C51.5274 30.756 51.5279 30.756 51.5284 30.756C51.5288 30.756 51.5293 30.756 51.5298 30.756C51.5302 30.756 51.5307 30.756 51.5312 30.756C51.5316 30.756 51.5321 30.756 51.5326 30.756C51.533 30.756 51.5335 30.756 51.534 30.756C51.5345 30.756 51.5349 30.756 51.5354 30.756C51.5359 30.756 51.5364 30.756 51.5369 30.756C51.5373 30.756 51.5378 30.756 51.5383 30.756C51.5388 30.756 51.5393 30.756 51.5398 30.756C51.5402 30.756 51.5407 30.756 51.5412 30.756C51.5417 30.756 51.5422 30.756 51.5427 30.756C51.5432 30.756 51.5437 30.756 51.5441 30.756C51.5446 30.756 51.5451 30.756 51.5456 30.756C51.5461 30.756 51.5466 30.756 51.5471 30.756C51.5476 30.756 51.5481 30.756 51.5486 30.756C51.5491 30.756 51.5496 30.756 51.5501 30.756C51.5506 30.756 51.5511 30.756 51.5516 30.756C51.5521 30.756 51.5526 30.756 51.5531 30.756C51.5536 30.756 51.5541 30.756 51.5546 30.756C51.5552 30.756 51.5557 30.756 51.5562 30.756C51.5567 30.756 51.5572 30.756 51.5577 30.756C51.5582 30.756 51.5587 30.756 51.5593 30.756C51.5598 30.756 51.5603 30.756 51.5608 30.756C51.5613 30.756 51.5619 30.756 51.5624 30.756C51.5629 30.756 51.5634 30.756 51.5639 30.756C51.5645 30.756 51.565 30.756 51.5655 30.756C51.566 30.756 51.5666 30.756 51.5671 30.756C51.5676 30.756 51.5682 30.756 51.5687 30.756C51.5692 30.756 51.5697 30.756 51.5703 30.756C51.5708 30.756 51.5713 30.756 51.5719 30.756C51.5724 30.756 51.573 30.756 51.5735 30.756C51.574 30.756 51.5746 30.756 51.5751 30.756C51.5757 30.756 51.5762 30.756 51.5767 30.756C51.5773 30.756 51.5778 30.756 51.5784 30.756C51.5789 30.756 51.5795 30.756 51.58 30.756C51.5806 30.756 51.5811 30.756 51.5817 30.756C51.5822 30.756 51.5828 30.756 51.5833 30.756C51.5839 30.756 51.5844 30.756 51.585 30.756C51.5855 30.756 51.5861 30.756 51.5866 30.756C51.5872 30.756 51.5878 30.756 51.5883 30.756C51.5889 30.756 51.5894 30.756 51.59 30.756C51.5906 30.756 51.5911 30.756 51.5917 30.756C51.5923 30.756 51.5928 30.756 51.5934 30.756C51.594 30.756 51.5945 30.756 51.5951 30.756C51.5957 30.756 51.5962 30.756 51.5968 30.756C51.5974 30.756 51.598 30.756 51.5985 30.756C51.5991 30.756 51.5997 30.756 51.6003 30.756C51.6008 30.756 51.6014 30.756 51.602 30.756C51.6026 30.756 51.6032 30.756 51.6037 30.756C51.6043 30.756 51.6049 30.756 51.6055 30.756C51.6061 30.756 51.6067 30.756 51.6072 30.756C51.6078 30.756 51.6084 30.756 51.609 30.756C51.6096 30.756 51.6102 30.756 51.6108 30.756C51.6114 30.756 51.612 30.756 51.6126 30.756C51.6132 30.756 51.6137 30.756 51.6143 30.756C51.6149 30.756 51.6155 30.756 51.6161 30.756C51.6167 30.756 51.6173 30.756 51.6179 30.756C51.6185 30.756 51.6191 30.756 51.6197 30.756C51.6204 30.756 51.621 30.756 51.6216 30.756C51.6222 30.756 51.6228 30.756 51.6234 30.756C51.624 30.756 51.6246 30.756 51.6252 30.756C51.6258 30.756 51.6264 30.756 51.6271 30.756C51.6277 30.756 51.6283 30.756 51.6289 30.756C51.6295 30.756 51.6301 30.756 51.6308 30.756C51.6314 30.756 51.632 30.756 51.6326 30.756C51.6332 30.756 51.6339 30.756 51.6345 30.756C51.6351 30.756 51.6357 30.756 51.6364 30.756C51.637 30.756 51.6376 30.756 51.6382 30.756C51.6389 30.756 51.6395 30.756 51.6401 30.756C51.6408 30.756 51.6414 30.756 51.642 30.756C51.6427 30.756 51.6433 30.756 51.6439 30.756C51.6446 30.756 51.6452 30.756 51.6458 30.756C51.6465 30.756 51.6471 30.756 51.6478 30.756C51.6484 30.756 51.649 30.756 51.6497 30.756C51.6503 30.756 51.651 30.756 51.6516 30.756C51.6523 30.756 51.6529 30.756 51.6535 30.756C51.6542 30.756 51.6548 30.756 51.6555 30.756C51.6561 30.756 51.6568 30.756 51.6575 30.756C51.6581 30.756 51.6588 30.756 51.6594 30.756C51.6601 30.756 51.6607 30.756 51.6614 30.756C51.662 30.756 51.6627 30.756 51.6634 30.756C51.664 30.756 51.6647 30.756 51.6653 30.756C51.666 30.756 51.6667 30.756 51.6673 30.756C51.668 30.756 51.6687 30.756 51.6693 30.756C51.67 30.756 51.6707 30.756 51.6713 30.756C51.672 30.756 51.6727 30.756 51.6734 30.756C51.674 30.756 51.6747 30.756 51.6754 30.756C51.676 30.756 51.6767 30.756 51.6774 30.756C51.6781 30.756 51.6788 30.756 51.6794 30.756C51.6801 30.756 51.6808 30.756 51.6815 30.756C51.6822 30.756 51.6828 30.756 51.6835 30.756C51.6842 30.756 51.6849 30.756 51.6856 30.756C51.6863 30.756 51.687 30.756 51.6877 30.756C51.6883 30.756 51.689 30.756 51.6897 30.756C51.6904 30.756 51.6911 30.756 51.6918 30.756C51.6925 30.756 51.6932 30.756 51.6939 30.756C51.6946 30.756 51.6953 30.756 51.696 30.756C51.6967 30.756 51.6974 30.756 51.6981 30.756C51.6988 30.756 51.6995 30.756 51.7002 30.756C51.7009 30.756 51.7016 30.756 51.7023 30.756C51.703 30.756 51.7037 30.756 51.7044 30.756C51.7051 30.756 51.7059 30.756 51.7066 30.756C51.7073 30.756 51.708 30.756 51.7087 30.756C51.7094 30.756 51.7101 30.756 51.7108 30.756C51.7116 30.756 51.7123 30.756 51.713 30.756C51.7137 30.756 51.7144 30.756 51.7152 30.756C51.7159 30.756 51.7166 30.756 51.7173 30.756C51.7181 30.756 51.7188 30.756 51.7195 30.756C51.7202 30.756 51.721 30.756 51.7217 30.756C51.7224 30.756 51.7231 30.756 51.7239 30.756C51.7246 30.756 51.7253 30.756 51.7261 30.756C51.7268 30.756 51.7275 30.756 51.7283 30.756C51.729 30.756 51.7297 30.756 51.7305 30.756C51.7312 30.756 51.732 30.756 51.7327 30.756C51.7334 30.756 51.7342 30.756 51.7349 30.756C51.7357 30.756 51.7364 30.756 51.7372 30.756C51.7379 30.756 51.7387 30.756 51.7394 30.756C51.7402 30.756 51.7409 30.756 51.7417 30.756C51.7424 30.756 51.7432 30.756 51.7439 30.756C51.7447 30.756 51.7454 30.756 51.7462 30.756C51.7469 30.756 51.7477 30.756 51.7484 30.756C51.7492 30.756 51.75 30.756 51.7507 30.756C51.7515 30.756 51.7522 30.756 51.753 30.756C51.7538 30.756 51.7545 30.756 51.7553 30.756C51.7561 30.756 51.7568 30.756 51.7576 30.756C51.7584 30.756 51.7591 30.756 51.7599 30.756C51.7607 30.756 51.7614 30.756 51.7622 30.756C51.763 30.756 51.7638 30.756 51.7645 30.756C51.7653 30.756 51.7661 30.756 51.7669 30.756C51.7676 30.756 51.7684 30.756 51.7692 30.756C51.77 30.756 51.7708 30.756 51.7715 30.756C51.7723 30.756 51.7731 30.756 51.7739 30.756C51.7747 30.756 51.7755 30.756 51.7762 30.756C51.777 30.756 51.7778 30.756 51.7786 30.756C51.7794 30.756 51.7802 30.756 51.781 30.756C51.7818 30.756 51.7826 30.756 51.7834 30.756C51.7842 30.756 51.785 30.756 51.7858 30.756C51.7865 30.756 51.7873 30.756 51.7881 30.756C51.7889 30.756 51.7897 30.756 51.7905 30.756C51.7913 30.756 51.7922 30.756 51.793 30.756C51.7938 30.756 51.7946 30.756 51.7954 30.756C51.7962 30.756 51.797 30.756 51.7978 30.756C51.7986 30.756 51.7994 30.756 51.8002 30.756C51.801 30.756 51.8019 30.756 51.8027 30.756C51.8035 30.756 51.8043 30.756 51.8051 30.756C51.8059 30.756 51.8067 30.756 51.8076 30.756C51.8084 30.756 51.8092 30.756 51.81 30.756C51.8108 30.756 51.8117 30.756 51.8125 30.756C51.8133 30.756 51.8141 30.756 51.815 30.756C51.8158 30.756 51.8166 30.756 51.8174 30.756C51.8183 30.756 51.8191 30.756 51.8199 30.756C51.8208 30.756 51.8216 30.756 51.8224 30.756C51.8233 30.756 51.8241 30.756 51.8249 30.756C51.8258 30.756 51.8266 30.756 51.8274 30.756C51.8283 30.756 51.8291 30.756 51.83 30.756C51.8308 30.756 51.8317 30.756 51.8325 30.756C51.8333 30.756 51.8342 30.756 51.835 30.756C51.8359 30.756 51.8367 30.756 51.8376 30.756C51.8384 30.756 51.8393 30.756 51.8401 30.756C51.841 30.756 51.8418 30.756 51.8427 30.756C51.8435 30.756 51.8444 30.756 51.8452 30.756C51.8461 30.756 51.8469 30.756 51.8478 30.756C51.8487 30.756 51.8495 30.756 51.8504 30.756C51.8512 30.756 51.8521 30.756 51.853 30.756C51.8538 30.756 51.8547 30.756 51.8556 30.756C51.8564 30.756 51.8573 30.756 51.8582 30.756C51.859 30.756 51.8599 30.756 51.8608 30.756C51.8616 30.756 51.8625 30.756 51.8634 30.756C51.8643 30.756 51.8651 30.756 51.866 30.756C51.8669 30.756 51.8678 30.756 51.8686 30.756C51.8695 30.756 51.8704 30.756 51.8713 30.756C51.8721 30.756 51.873 30.756 51.8739 30.756C51.8748 30.756 51.8757 30.756 51.8766 30.756C51.8774 30.756 51.8783 30.756 51.8792 30.756C51.8801 30.756 51.881 30.756 51.8819 30.756C51.8828 30.756 51.8837 30.756 51.8846 30.756C51.8854 30.756 51.8863 30.756 51.8872 30.756C51.8881 30.756 51.889 30.756 51.8899 30.756C51.8908 30.756 51.8917 30.756 51.8926 30.756C51.8935 30.756 51.8944 30.756 51.8953 30.756C51.8962 30.756 51.8971 30.756 51.898 30.756C51.8989 30.756 51.8998 30.756 51.9007 30.756C51.9017 30.756 51.9026 30.756 51.9035 30.756C51.9044 30.756 51.9053 30.756 51.9062 30.756C51.9071 30.756 51.908 30.756 51.9089 30.756C51.9099 30.756 51.9108 30.756 51.9117 30.756C51.9126 30.756 51.9135 30.756 51.9144 30.756C51.9154 30.756 51.9163 30.756 51.9172 30.756C51.9181 30.756 51.919 30.756 51.92 30.756C51.9209 30.756 51.9218 30.756 51.9227 30.756C51.9237 30.756 51.9246 30.756 51.9255 30.756C51.9265 30.756 51.9274 30.756 51.9283 30.756C51.9292 30.756 51.9302 30.756 51.9311 30.756C51.932 30.756 51.933 30.756 51.9339 30.756C51.9349 30.756 51.9358 30.756 51.9367 30.756C51.9377 30.756 51.9386 30.756 51.9395 30.756C51.9405 30.756 51.9414 30.756 51.9424 30.756C51.9433 30.756 51.9443 30.756 51.9452 30.756C51.9462 30.756 51.9471 30.756 51.948 30.756C51.949 30.756 51.9499 30.756 51.9509 30.756C51.9518 30.756 51.9528 30.756 51.9538 30.756C51.9547 30.756 51.9557 30.756 51.9566 30.756C51.9576 30.756 51.9585 30.756 51.9595 30.756C51.9604 30.756 51.9614 30.756 51.9624 30.756C51.9633 30.756 51.9643 30.756 51.9652 30.756C51.9662 30.756 51.9672 30.756 51.9681 30.756C51.9691 30.756 51.9701 30.756 51.971 30.756C51.972 30.756 51.973 30.756 51.9739 30.756C51.9749 30.756 51.9759 30.756 51.9769 30.756C51.9778 30.756 51.9788 30.756 51.9798 30.756C51.9808 30.756 51.9817 30.756 51.9827 30.756C51.9837 30.756 51.9847 30.756 51.9856 30.756C51.9866 30.756 51.9876 30.756 51.9886 30.756C51.9896 30.756 51.9906 30.756 51.9915 30.756C51.9925 30.756 51.9935 30.756 51.9945 30.756C51.9955 30.756 51.9965 30.756 51.9975 30.756C51.9985 30.756 51.9994 30.756 52.0004 30.756C52.0014 30.756 52.0024 30.756 52.0034 30.756C52.0044 30.756 52.0054 30.756 52.0064 30.756C52.0074 30.756 52.0084 30.756 52.0094 30.756C52.0104 30.756 52.0114 30.756 52.0124 30.756C52.0134 30.756 52.0144 30.756 52.0154 30.756C52.0164 30.756 52.0174 30.756 52.0184 30.756C52.0194 30.756 52.0204 30.756 52.0215 30.756C52.0225 30.756 52.0235 30.756 52.0245 30.756C52.0255 30.756 52.0265 30.756 52.0275 30.756C52.0285 30.756 52.0296 30.756 52.0306 30.756C52.0316 30.756 52.0326 30.756 52.0336 30.756C52.0346 30.756 52.0357 30.756 52.0367 30.756C52.0377 30.756 52.0387 30.756 52.0398 30.756C52.0408 30.756 52.0418 30.756 52.0428 30.756C52.0439 30.756 52.0449 30.756 52.0459 30.756C52.0469 30.756 52.048 30.756 52.049 30.756C52.05 30.756 52.0511 30.756 52.0521 30.756C52.0531 30.756 52.0542 30.756 52.0552 30.756C52.0562 30.756 52.0573 30.756 52.0583 30.756C52.0594 30.756 52.0604 30.756 52.0614 30.756C52.0625 30.756 52.0635 30.756 52.0646 30.756C52.0656 30.756 52.0666 30.756 52.0677 30.756C52.0687 30.756 52.0698 30.756 52.0708 30.756C52.0719 30.756 52.0729 30.756 52.074 30.756C52.075 30.756 52.0761 30.756 52.0771 30.756C52.0782 30.756 52.0792 30.756 52.0803 30.756C52.0814 30.756 52.0824 30.756 52.0835 30.756C52.0845 30.756 52.0856 30.756 52.0867 30.756C52.0877 30.756 52.0888 30.756 52.0898 30.756C52.0909 30.756 52.092 30.756 52.093 30.756C52.0941 30.756 52.0952 30.756 52.0962 30.756C52.0973 30.756 52.0984 30.756 52.0994 30.756C52.1005 30.756 52.1016 30.756 52.1027 30.756C52.1037 30.756 52.1048 30.756 52.1059 30.756C52.1069 30.756 52.108 30.756 52.1091 30.756C52.1102 30.756 52.1113 30.756 52.1123 30.756C52.1134 30.756 52.1145 30.756 52.1156 30.756C52.1167 30.756 52.1178 30.756 52.1188 30.756C52.1199 30.756 52.121 30.756 52.1221 30.756C52.1232 30.756 52.1243 30.756 52.1254 30.756C52.1264 30.756 52.1275 30.756 52.1286 30.756C52.1297 30.756 52.1308 30.756 52.1319 30.756C52.133 30.756 52.1341 30.756 52.1352 30.756C52.1363 30.756 52.1374 30.756 52.1385 30.756C52.1396 30.756 52.1407 30.756 52.1418 30.756C52.1429 30.756 52.144 30.756 52.1451 30.756C52.1462 30.756 52.1473 30.756 52.1484 30.756C52.1495 30.756 52.1506 30.756 52.1518 30.756C52.1529 30.756 52.154 30.756 52.1551 30.756C52.1562 30.756 52.1573 30.756 52.1584 30.756C52.1595 30.756 52.1607 30.756 52.1618 30.756C52.1629 30.756 52.164 30.756 52.1651 30.756C52.1662 30.756 52.1674 30.756 52.1685 30.756C52.1696 30.756 52.1707 30.756 52.1719 30.756C52.173 30.756 52.1741 30.756 52.1752 30.756C52.1764 30.756 52.1775 30.756 52.1786 30.756C52.1797 30.756 52.1809 30.756 52.182 30.756C52.1831 30.756 52.1843 30.756 52.1854 30.756C52.1865 30.756 52.1877 30.756 52.1888 30.756C52.1899 30.756 52.1911 30.756 52.1922 30.756C52.1934 30.756 52.1945 30.756 52.1956 30.756C52.1968 30.756 52.1979 30.756 52.1991 30.756C52.2002 30.756 52.2014 30.756 52.2025 30.756C52.2036 30.756 52.2048 30.756 52.2059 30.756C52.2071 30.756 52.2082 30.756 52.2094 30.756C52.2105 30.756 52.2117 30.756 52.2128 30.756C52.214 30.756 52.2152 30.756 52.2163 30.756C52.2175 30.756 52.2186 30.756 52.2198 30.756C52.2209 30.756 52.2221 30.756 52.2233 30.756C52.2244 30.756 52.2256 30.756 52.2267 30.756C52.2279 30.756 52.2291 30.756 52.2302 30.756C52.2314 30.756 52.2326 30.756 52.2337 30.756C52.2349 30.756 52.2361 30.756 52.2372 30.756C52.2384 30.756 52.2396 30.756 52.2408 30.756C52.2419 30.756 52.2431 30.756 52.2443 30.756C52.2455 30.756 52.2466 30.756 52.2478 30.756C52.249 30.756 52.2502 30.756 52.2513 30.756C52.2525 30.756 52.2537 30.756 52.2549 30.756C52.2561 30.756 52.2573 30.756 52.2584 30.756C52.2596 30.756 52.2608 30.756 52.262 30.756C52.2632 30.756 52.2644 30.756 52.2656 30.756C52.2668 30.756 52.2679 30.756 52.2691 30.756C52.2703 30.756 52.2715 30.756 52.2727 30.756C52.2739 30.756 52.2751 30.756 52.2763 30.756C52.2775 30.756 52.2787 30.756 52.2799 30.756C52.2811 30.756 52.2823 30.756 52.2835 30.756C52.2847 30.756 52.2859 30.756 52.2871 30.756C52.2883 30.756 52.2895 30.756 52.2907 30.756C52.2919 30.756 52.2932 30.756 52.2944 30.756C52.2956 30.756 52.2968 30.756 52.298 30.756C52.2992 30.756 52.3004 30.756 52.3016 30.756C52.3028 30.756 52.3041 30.756 52.3053 30.756C52.3065 30.756 52.3077 30.756 52.3089 30.756C52.3102 30.756 52.3114 30.756 52.3126 30.756C52.3138 30.756 52.315 30.756 52.3163 30.756C52.3175 30.756 52.3187 30.756 52.3199 30.756C52.3212 30.756 52.3224 30.756 52.3236 30.756C52.3249 30.756 52.3261 30.756 52.3273 30.756C52.3285 30.756 52.3298 30.756 52.331 30.756C52.3322 30.756 52.3335 30.756 52.3347 30.756C52.336 30.756 52.3372 30.756 52.3384 30.756C52.3397 30.756 52.3409 30.756 52.3421 30.756C52.3434 30.756 52.3446 30.756 52.3459 30.756C52.3471 30.756 52.3484 30.756 52.3496 30.756C52.3509 30.756 52.3521 30.756 52.3534 30.756C52.3546 30.756 52.3559 30.756 52.3571 30.756C52.3584 30.756 52.3596 30.756 52.3609 30.756C52.3621 30.756 52.3634 30.756 52.3646 30.756C52.3659 30.756 52.3671 30.756 52.3684 30.756C52.3697 30.756 52.3709 30.756 52.3722 30.756C52.3734 30.756 52.3747 30.756 52.376 30.756C52.3772 30.756 52.3785 30.756 52.3798 30.756C52.381 30.756 52.3823 30.756 52.3836 30.756C52.3848 30.756 52.3861 30.756 52.3874 30.756C52.3886 30.756 52.3899 30.756 52.3912 30.756C52.3924 30.756 52.3937 30.756 52.395 30.756C52.3963 30.756 52.3975 30.756 52.3988 30.756C52.4001 30.756 52.4014 30.756 52.4027 30.756C52.4039 30.756 52.4052 30.756 52.4065 30.756C52.4078 30.756 52.4091 30.756 52.4104 30.756C52.4116 30.756 52.4129 30.756 52.4142 30.756C52.4155 30.756 52.4168 30.756 52.4181 30.756C52.4194 30.756 52.4207 30.756 52.422 30.756C52.4233 30.756 52.4245 30.756 52.4258 30.756C52.4271 30.756 52.4284 30.756 52.4297 30.756C52.431 30.756 52.4323 30.756 52.4336 30.756C52.4349 30.756 52.4362 30.756 52.4375 30.756C52.4388 30.756 52.4401 30.756 52.4414 30.756C52.4427 30.756 52.444 30.756 52.4454 30.756C52.4467 30.756 52.448 30.756 52.4493 30.756C52.4506 30.756 52.4519 30.756 52.4532 30.756C52.4545 30.756 52.4558 30.756 52.4572 30.756C52.4585 30.756 52.4598 30.756 52.4611 30.756C52.4624 30.756 52.4637 30.756 52.4651 30.756C52.4664 30.756 52.4677 30.756 52.469 30.756C52.4703 30.756 52.4717 30.756 52.473 30.756C52.4743 30.756 52.4756 30.756 52.477 30.756C52.4783 30.756 52.4796 30.756 52.4809 30.756C52.4823 30.756 52.4836 30.756 52.4849 30.756C52.4863 30.756 52.4876 30.756 52.4889 30.756C52.4903 30.756 52.4916 30.756 52.4929 30.756C52.4943 30.756 52.4956 30.756 52.497 30.756C52.4983 30.756 52.4996 30.756 52.501 30.756C52.5023 30.756 52.5037 30.756 52.505 30.756C52.5063 30.756 52.5077 30.756 52.509 30.756C52.5104 30.756 52.5117 30.756 52.5131 30.756C52.5144 30.756 52.5158 30.756 52.5171 30.756C52.5185 30.756 52.5198 30.756 52.5212 30.756C52.5225 30.756 52.5239 30.756 52.5252 30.756C52.5266 30.756 52.528 30.756 52.5293 30.756C52.5307 30.756 52.532 30.756 52.5334 30.756C52.5348 30.756 52.5361 30.756 52.5375 30.756C52.5388 30.756 52.5402 30.756 52.5416 30.756C52.5429 30.756 52.5443 30.756 52.5457 30.756C52.547 30.756 52.5484 30.756 52.5498 30.756C52.5512 30.756 52.5525 30.756 52.5539 30.756C52.5553 30.756 52.5567 30.756 52.558 30.756C52.5594 30.756 52.5608 30.756 52.5622 30.756C52.5635 30.756 52.5649 30.756 52.5663 30.756C52.5677 30.756 52.5691 30.756 52.5704 30.756C52.5718 30.756 52.5732 30.756 52.5746 30.756C52.576 30.756 52.5774 30.756 52.5787 30.756C52.5801 30.756 52.5815 30.756 52.5829 30.756C52.5843 30.756 52.5857 30.756 52.5871 30.756C52.5885 30.756 52.5899 30.756 52.5913 30.756C52.5927 30.756 52.5941 30.756 52.5955 30.756C52.5969 30.756 52.5983 30.756 52.5997 30.756C52.6011 30.756 52.6025 30.756 52.6039 30.756C52.6053 30.756 52.6067 30.756 52.6081 30.756C52.6095 30.756 52.6109 30.756 52.6123 30.756C52.6137 30.756 52.6151 30.756 52.6165 30.756C52.6179 30.756 52.6193 30.756 52.6207 30.756C52.6222 30.756 52.6236 30.756 52.625 30.756C52.6264 30.756 52.6278 30.756 52.6292 30.756C52.6307 30.756 52.6321 30.756 52.6335 30.756C52.6349 30.756 52.6363 30.756 52.6378 30.756C52.6392 30.756 52.6406 30.756 52.642 30.756C52.6434 30.756 52.6449 30.756 52.6463 30.756C52.6477 30.756 52.6492 30.756 52.6506 30.756C52.652 30.756 52.6534 30.756 52.6549 30.756C52.6563 30.756 52.6577 30.756 52.6592 30.756C52.6606 30.756 52.662 30.756 52.6635 30.756C52.6649 30.756 52.6664 30.756 52.6678 30.756C52.6692 30.756 52.6707 30.756 52.6721 30.756C52.6736 30.756 52.675 30.756 52.6764 30.756C52.6779 30.756 52.6793 30.756 52.6808 30.756C52.6822 30.756 52.6837 30.756 52.6851 30.756C52.6866 30.756 52.688 30.756 52.6895 30.756C52.6909 30.756 52.6924 30.756 52.6938 30.756C52.6953 30.756 52.6967 30.756 52.6982 30.756C52.6996 30.756 52.7011 30.756 52.7026 30.756C52.704 30.756 52.7055 30.756 52.7069 30.756C52.7084 30.756 52.7099 30.756 52.7113 30.756C52.7128 30.756 52.7143 30.756 52.7157 30.756C52.7172 30.756 52.7187 30.756 52.7201 30.756C52.7216 30.756 52.7231 30.756 52.7245 30.756C52.726 30.756 52.7275 30.756 52.7289 30.756C52.7304 30.756 52.7319 30.756 52.7334 30.756C52.7348 30.756 52.7363 30.756 52.7378 30.756C52.7393 30.756 52.7408 30.756 52.7422 30.756C52.7437 30.756 52.7452 30.756 52.7467 30.756C52.7482 30.756 52.7496 30.756 52.7511 30.756C52.7526 30.756 52.7541 30.756 52.7556 30.756C52.7571 30.756 52.7586 30.756 52.7601 30.756C52.7615 30.756 52.763 30.756 52.7645 30.756C52.766 30.756 52.7675 30.756 52.769 30.756C52.7705 30.756 52.772 30.756 52.7735 30.756C52.775 30.756 52.7765 30.756 52.778 30.756V23.756ZM51.3692 23.7566C48.5729 23.8084 45.7633 24.5434 43.8261 26.7227L49.0579 31.3733C49.1687 31.2486 49.6871 30.7889 51.4988 30.7554L51.3692 23.7566ZM43.8702 26.674C42.2965 28.3788 41.406 30.469 41.406 32.824H48.406C48.406 32.363 48.5395 31.9358 49.0138 31.422L43.8702 26.674ZM41.406 32.824C41.406 35.0483 42.1432 37.1008 43.6653 38.7679L48.8347 34.0481C48.5648 33.7525 48.406 33.4157 48.406 32.824H41.406ZM43.7183 38.8247C44.9805 40.147 46.5044 41.1544 48.2245 41.8757L50.9315 35.4203C50.0062 35.0323 49.3115 34.5463 48.7817 33.9913L43.7183 38.8247ZM48.3491 41.9252C49.6406 42.4095 51.0266 42.9797 52.5085 43.6383L55.3515 37.2417C53.7614 36.535 52.2461 35.9105 50.8069 35.3708L48.3491 41.9252ZM52.5408 43.6525C54.0329 44.2977 55.3842 44.9546 56.5991 45.6208L59.9649 39.4832C58.5345 38.6987 56.9844 37.9476 55.3192 37.2275L52.5408 43.6525ZM56.7168 45.6825C57.491 46.0696 58.1662 46.658 58.7478 47.5443L64.6002 43.7037C63.3898 41.8593 61.8037 40.3997 59.8472 39.4215L56.7168 45.6825ZM58.7763 47.587C59.1902 48.1979 59.518 49.1315 59.518 50.616H66.518C66.518 48.0898 65.9498 45.6954 64.5717 43.661L58.7763 47.587ZM59.518 50.616C59.518 51.7005 59.1775 52.5147 58.4311 53.2611L63.3809 58.2109C65.4505 56.1413 66.518 53.5422 66.518 50.616H59.518ZM58.4311 53.2611C57.413 54.2793 56.3616 54.8768 55.2631 55.1716L57.0769 61.9324C59.4771 61.2885 61.583 60.0087 63.3809 58.2109L58.4311 53.2611ZM55.242 55.1773C53.8746 55.5533 52.3346 55.756 50.602 55.756V62.756C52.88 62.756 55.052 62.4894 57.098 61.9267L55.242 55.1773ZM50.602 55.756C46.6892 55.756 44.4084 54.8834 43.1257 53.7516L38.4943 59.0004C41.5636 61.7086 45.8108 62.756 50.602 62.756V55.756ZM43.2849 58.8509L43.6689 58.4669L38.7191 53.5171L38.3351 53.9011L43.2849 58.8509ZM38.7834 58.5295C40.1709 59.8477 41.9878 60.7203 43.9407 61.3212L45.9993 54.6308C44.6242 54.2077 43.9237 53.7576 43.6046 53.4545L38.7834 58.5295ZM43.9643 61.3284C45.9559 61.9259 47.9381 62.244 49.898 62.244V55.244C48.7006 55.244 47.3974 55.0501 45.9757 54.6236L43.9643 61.3284ZM49.898 62.244C53.0782 62.244 55.9943 61.3657 58.3605 59.3732L53.8515 54.0188C52.975 54.7569 51.7524 55.244 49.898 55.244V62.244ZM58.3668 59.3679C60.7591 57.3436 62.102 54.6627 62.102 51.512H55.102C55.102 52.4573 54.7809 53.2324 53.8452 54.0241L58.3668 59.3679ZM62.102 51.512C62.102 48.6868 61.24 46.0642 59.2209 44.0451L54.2711 48.9949C54.7267 49.4504 55.102 50.1558 55.102 51.512H62.102ZM59.2625 44.0874C57.6413 42.4103 55.6822 41.1564 53.448 40.3053L50.956 46.8467C52.3058 47.3609 53.3761 48.0697 54.2295 48.9526L59.2625 44.0874ZM53.5426 40.3429C51.7615 39.6044 49.9593 38.8879 48.136 38.1933L45.644 44.7347C47.4047 45.4054 49.1438 46.0969 50.8614 46.8091L53.5426 40.3429ZM48.2032 38.2197C46.8003 37.6519 45.6933 36.9175 44.8209 36.0451L39.8711 40.9949C41.4734 42.5972 43.3957 43.8255 45.5768 44.7083L48.2032 38.2197ZM44.8625 36.0874C44.2075 35.4098 43.99 34.7927 43.99 34.104H36.99C36.99 36.7433 38.0099 39.0702 39.8295 40.9526L44.8625 36.0874ZM43.99 34.104C43.99 32.9697 44.2482 32.4304 44.442 32.172L38.842 27.972C37.4998 29.7616 36.99 31.9103 36.99 34.104H43.99ZM44.4824 32.1171C44.8088 31.6637 45.2185 31.3532 45.8208 31.1524L43.6072 24.5116C41.6495 25.1642 40.0112 26.3469 38.8016 28.0269L44.4824 32.1171ZM45.8208 31.1524C47.6593 30.5395 49.4621 30.244 51.242 30.244V23.244C48.6699 23.244 46.1207 23.6738 43.6072 24.5116L45.8208 31.1524ZM51.242 30.244C54.5393 30.244 56.6213 30.8673 57.8766 31.7042L61.7595 25.8798C58.9187 23.986 55.2834 23.244 51.242 23.244V30.244ZM56.9699 26.7577L56.6499 27.2057L62.3461 31.2743L62.6661 30.8263L56.9699 26.7577Z" fill="#D1B7A9"/>
</svg>
